<?xml version="1.0" encoding="UTF-8"?>
<svg id="Layer_2" data-name="Layer 2" xmlns="http://www.w3.org/2000/svg" viewBox="0 0 143.38 106.75">
  <defs>
    <style>
      .cls-1 {
        stroke: #000;
      }
    </style>
  </defs>
  <g id="Bag">
    <path class="cls-1" d="M15.32,12.14c-.43.34-.5.68-.74,1.61-.25.92-.41,1.49-.46,2.99-.05,1.51.19,2.48.22,4.54.04,2.05.06,3.29-.05,5.72-.11,2.43-.25,3.82-.51,6.42-.26,2.6-.44,4.03-.77,6.59-.34,2.56-.53,3.9-.91,6.22-.37,2.32-.64,3.48-.94,5.39s-.46,2.84-.57,4.19c-.11,1.35-.08,1.8.04,2.57.12.76.33.95.54,1.25.21.31.35.23.51.27.16.04.17-.03.31-.08.14-.05.19.06.4-.18.21-.24.41-.33.67-1.02.26-.69.4-1.11.62-2.43.22-1.32.29-2.25.49-4.17.2-1.92.26-3.1.52-5.44.26-2.34.45-3.68.78-6.26.32-2.57.51-4,.85-6.62.34-2.62.52-4.01.83-6.46.31-2.45.5-3.71.73-5.8.23-2.1.47-3.13.43-4.69-.04-1.57-.29-2.2-.61-3.14-.32-.94-.52-1.28-.99-1.57-.47-.29-.96-.24-1.38.1"/>
    <path class="cls-1" d="M4.51,11.47c.49.03.61-.19,1.21-.52.6-.33.87-.54,1.8-1.13.92-.59,1.43-1.04,2.83-1.85,1.41-.8,2.26-1.41,4.19-2.17,1.93-.76,3.18-1.13,5.46-1.64s3.59-.71,5.95-.88c2.35-.16,3.62-.15,5.8.07,2.18.22,3.29.46,5.09,1.02,1.79.56,2.57,1.04,3.88,1.78,1.3.75,1.86,1.14,2.64,1.96.79.82,1.04,1.28,1.27,2.17.23.88.2,1.32-.12,2.25-.32.92-.64,1.39-1.47,2.38-.82,1-1.43,1.55-2.65,2.58-1.22,1.03-2.02,1.63-3.47,2.55-1.45.92-2.38,1.29-3.79,2.05-1.4.76-2.17,1.09-3.23,1.75-1.06.67-1.53.91-2.06,1.57-.53.65-.64,1.02-.58,1.72.07.7.28,1.18.9,1.78.62.6,1.13.83,2.22,1.23,1.09.4,1.81.42,3.22.79,1.42.37,2.3.49,3.86,1.04,1.56.56,2.46.89,3.94,1.72,1.49.83,2.26,1.37,3.49,2.45,1.22,1.09,1.78,1.75,2.63,2.98.85,1.22,1.23,1.88,1.62,3.15.39,1.28.47,1.94.34,3.22-.13,1.28-.37,1.91-1.01,3.19-.65,1.28-1.04,1.97-2.21,3.21-1.18,1.24-1.93,1.89-3.67,2.97-1.73,1.08-2.82,1.62-4.99,2.44-2.17.82-3.44,1.18-5.86,1.67-2.42.49-3.79.64-6.25.76-2.45.13-3.77.09-6.05-.13-2.28-.22-3.43-.43-5.33-.95-1.9-.52-2.75-.96-4.14-1.65-1.39-.7-1.93-1.15-2.83-1.82-.91-.67-1.16-1.03-1.71-1.55-.55-.52-.64-.91-1.06-1.04-.41-.13-.8-.1-1,.37s-.31,1.01.02,1.94c.34.92.63,1.66,1.66,2.68,1.03,1.02,1.82,1.65,3.5,2.42,1.67.77,2.76.99,4.9,1.43,2.14.44,3.34.62,5.78.79,2.43.17,3.8.19,6.4.04,2.6-.14,4.01-.28,6.59-.76,2.58-.47,3.92-.81,6.29-1.63,2.38-.81,3.58-1.3,5.59-2.43s2.98-1.78,4.48-3.2c1.49-1.43,2.17-2.27,3.02-3.96.85-1.68,1.07-2.66,1.23-4.45.16-1.79.05-2.75-.43-4.48-.47-1.74-.91-2.65-1.94-4.21-1.04-1.55-1.8-2.29-3.24-3.59-1.44-1.3-2.32-1.88-3.96-2.93-1.64-1.05-2.59-1.52-4.26-2.32-1.68-.8-2.6-1.18-4.13-1.67-1.52-.5-2.33-.7-3.5-.81-1.18-.11-1.74.02-2.38.26-.64.23-.84.64-.83.93.01.29.24.53.89.52.65,0,1.19-.15,2.36-.56,1.18-.41,2-.73,3.51-1.48,1.5-.76,2.41-1.28,4.01-2.3,1.6-1.01,2.56-1.54,3.98-2.75,1.42-1.22,2.17-1.92,3.12-3.35.95-1.42,1.33-2.25,1.64-3.77.31-1.52.29-2.38-.11-3.83-.4-1.45-.82-2.2-1.87-3.44s-1.74-1.86-3.35-2.77c-1.61-.9-2.63-1.21-4.7-1.74-2.07-.53-3.28-.71-5.65-.9-2.37-.19-3.7-.18-6.2-.04-2.51.14-3.87.34-6.32.76-2.45.41-3.74.73-5.93,1.32-2.2.58-3.35.82-5.06,1.6-1.7.79-2.45,1.38-3.48,2.33-1.03.94-1.32,1.56-1.66,2.4-.35.83-.29,1.29-.05,1.78.23.49.74.64,1.23.67"/>
    <path class="cls-1" d="M82.46,37.36c.16-.52.08-.94-.31-1.57-.38-.63-.73-1.05-1.61-1.57-.88-.53-1.54-.82-2.78-1.06-1.24-.25-1.96-.28-3.43-.16-1.47.12-2.3.21-3.92.74-1.62.53-2.53.92-4.19,1.92-1.66,1-2.54,1.68-4.09,3.07-1.55,1.39-2.36,2.23-3.65,3.86-1.3,1.64-1.96,2.57-2.83,4.32-.86,1.75-1.22,2.73-1.51,4.41-.29,1.67-.25,2.56.08,3.97.34,1.4.68,2.1,1.59,3.07.91.97,1.58,1.38,2.95,1.76,1.37.39,2.24.46,3.88.17,1.64-.29,2.56-.7,4.33-1.61,1.78-.92,2.75-1.62,4.56-2.96,1.81-1.34,2.76-2.2,4.51-3.74,1.75-1.54,2.67-2.44,4.24-3.96,1.57-1.51,2.41-2.29,3.62-3.62,1.2-1.33,1.75-1.99,2.39-3.02.65-1.04.84-1.58.85-2.14,0-.56-.35-.8-.82-.65-.47.14-.97.44-1.54,1.38-.56.94-.92,1.73-1.29,3.32s-.34,2.74-.57,4.63c-.23,1.9-.47,3.01-.59,4.85-.11,1.84-.2,2.86.03,4.37.23,1.52.61,2.26,1.12,3.21.51.95.94,1.33,1.43,1.55.49.22.81.02,1.03-.43.21-.45.04-.9.03-1.82,0-.91-.11-1.45-.08-2.76.04-1.31.05-2.13.26-3.79.21-1.66.36-2.73.78-4.48.41-1.76.98-2.74,1.3-4.3.32-1.57.43-2.38.31-3.55-.11-1.16-.34-1.73-.87-2.29-.52-.57-.99-.72-1.76-.55-.77.17-1.17.55-2.08,1.4s-1.34,1.51-2.47,2.83c-1.13,1.32-1.75,2.23-3.2,3.75-1.45,1.51-2.36,2.4-4.05,3.84-1.69,1.43-2.64,2.23-4.39,3.35-1.75,1.13-2.77,1.57-4.35,2.27-1.57.71-2.33.94-3.53,1.28-1.2.33-1.67.43-2.48.39-.8-.04-1.09-.13-1.52-.59-.44-.46-.57-.79-.64-1.68-.07-.89-.03-1.51.28-2.77.31-1.27.55-2.09,1.27-3.55.72-1.47,1.22-2.37,2.34-3.79,1.12-1.43,1.88-2.18,3.28-3.33,1.4-1.14,2.26-1.63,3.71-2.4,1.45-.77,2.23-1.03,3.54-1.44,1.31-.41,1.95-.55,3.01-.63,1.06-.08,1.47.04,2.28.24.8.2,1.11.52,1.75.77.64.25.9.38,1.44.49.55.11.81.25,1.28.05s.92-.52,1.07-1.05"/>
    <path class="cls-1" d="M123.77,43.01c.22-.49.2-.87-.1-1.51-.29-.63-.56-1.08-1.35-1.66-.79-.59-1.39-.92-2.58-1.27s-1.92-.44-3.37-.44c-1.45,0-2.28.05-3.88.44-1.6.38-2.52.67-4.12,1.46-1.6.79-2.47,1.34-3.89,2.5-1.42,1.15-2.15,1.88-3.2,3.27-1.06,1.39-1.55,2.21-2.07,3.68s-.66,2.32-.54,3.69c.12,1.37.38,2.12,1.14,3.16.76,1.04,1.36,1.54,2.64,2.05,1.28.52,2.14.65,3.76.52,1.62-.12,2.58-.4,4.34-1.14,1.76-.74,2.69-1.42,4.46-2.56,1.77-1.14,2.71-1.88,4.39-3.15,1.68-1.28,2.57-1.99,4.01-3.22,1.44-1.23,2.16-1.88,3.19-2.93,1.04-1.06,1.45-1.59,1.99-2.35.53-.75.67-1.07.69-1.42.02-.34-.29-.52-.6-.29-.31.23-.67.49-.97,1.43s-.44,1.64-.49,3.25c-.06,1.61.21,2.65.21,4.79,0,2.14-.05,3.44-.2,5.92-.14,2.48-.24,3.88-.53,6.5-.28,2.62-.44,4.02-.91,6.6-.46,2.58-.71,3.91-1.37,6.3-.66,2.39-1.03,3.55-1.91,5.63-.89,2.09-1.39,3.1-2.5,4.79-1.11,1.7-1.76,2.44-3.08,3.68-1.31,1.24-2.01,1.75-3.49,2.54-1.48.79-2.27,1.06-3.89,1.41-1.62.35-2.5.42-4.22.36-1.72-.05-2.64-.19-4.37-.65-1.73-.46-2.67-.83-4.27-1.64-1.61-.82-2.44-1.4-3.75-2.43-1.31-1.03-1.9-1.66-2.79-2.74-.89-1.08-1.21-1.69-1.69-2.68-.48-.98-.49-1.54-.71-2.26-.22-.72-.28-.89-.41-1.36-.14-.47-.02-.71-.26-.97-.25-.25-.6-.46-.98-.31-.37.14-.64.4-.9,1.02-.27.62-.46,1.02-.43,2.06.04,1.04.09,1.81.62,3.14.53,1.34.94,2.2,2.04,3.56,1.09,1.36,1.87,2.05,3.43,3.23,1.56,1.18,2.53,1.75,4.39,2.65,1.85.9,2.9,1.31,4.9,1.84,2,.52,3.06.71,5.08.76,2.03.06,3.1,0,5.04-.47,1.94-.46,2.93-.83,4.68-1.83,1.74-1,2.56-1.66,4.03-3.16,1.47-1.49,2.15-2.39,3.32-4.31,1.18-1.92,1.66-3.04,2.55-5.29.89-2.25,1.24-3.47,1.91-5.96.66-2.49.91-3.86,1.4-6.5.49-2.65.65-4.06,1.03-6.71.37-2.65.5-4.05.83-6.55.32-2.49.47-3.78.82-5.92.34-2.14.75-3.14.88-4.79.13-1.66.06-2.37-.22-3.48-.28-1.1-.57-1.52-1.16-2.06-.59-.54-1.04-.67-1.8-.64-.76.03-1.12.23-1.98.8-.86.56-1.26,1.04-2.33,2.02-1.07.97-1.68,1.64-3.04,2.84-1.36,1.2-2.17,1.97-3.76,3.17s-2.53,1.88-4.19,2.81c-1.67.94-2.65,1.3-4.15,1.88-1.5.59-2.23.8-3.37,1.04-1.13.25-1.61.28-2.32.18-.72-.1-.94-.23-1.27-.68-.32-.46-.41-.81-.36-1.58.05-.78.14-1.31.63-2.3.48-.99.89-1.61,1.79-2.65.9-1.04,1.53-1.65,2.71-2.56,1.19-.91,1.91-1.36,3.22-1.99,1.3-.62,2.06-.85,3.31-1.15,1.25-.3,1.91-.35,2.94-.34,1.03,0,1.47.16,2.23.39.76.23,1.01.5,1.57.77.56.27.73.42,1.22.56.49.14.74.29,1.21.13.48-.16.96-.45,1.18-.94"/>
    <path d="M1.08,84.34c19.3,4.23,37.96,10.81,57.06,15.77,17.91,4.65,36.51,7.84,55.07,6.2,10.15-.89,20.09-3.25,29.39-7.44,1.76-.79.23-3.38-1.51-2.59-16.41,7.39-34.85,8.54-52.55,6.64-18.82-2.01-37.01-7.63-55.08-13-10.45-3.1-20.93-6.15-31.58-8.49-1.88-.41-2.69,2.48-.8,2.89h0Z"/>
  </g>
</svg>