<svg xmlns="http://www.w3.org/2000/svg" id="canvas" viewBox="425.940 256.196 692.009 201.760"><path d="M 445.70,294.42 C 444.78 295.96, 445.14 297.76, 445.15 301.90 C 445.17 306.03, 445.62 308.77, 445.78 315.11 C 445.93 321.44, 446.08 325.71, 445.93 333.57 C 445.78 341.44, 445.55 345.89, 445.04 354.44 C 444.54 362.99, 444.11 367.72, 443.41 376.32 C 442.70 384.92, 442.26 389.46, 441.51 397.44 C 440.76 405.42, 440.33 409.40, 439.66 416.21 C 438.99 423.03, 438.74 426.26, 438.16 431.50 C 437.58 436.75, 436.99 439.02, 436.76 442.43 C 436.52 445.84, 436.55 446.84, 436.99 448.56 C 437.44 450.28, 438.29 450.55, 438.98 451.03 C 439.67 451.52, 440.15 451.08, 440.42 451.00 C 440.70 450.91, 440.16 450.68, 440.35 450.61 C 440.54 450.54, 440.82 451.08, 441.36 450.65 C 441.90 450.23, 442.64 450.09, 443.05 448.49 C 443.46 446.90, 443.41 446.01, 443.41 442.67 C 443.41 439.33, 443.01 437.03, 443.07 431.80 C 443.12 426.57, 443.26 423.34, 443.67 416.53 C 444.08 409.72, 444.46 405.74, 445.11 397.76 C 445.75 389.77, 446.17 385.22, 446.89 376.61 C 447.62 368.00, 448.07 363.27, 448.74 354.70 C 449.41 346.12, 449.79 341.65, 450.24 333.74 C 450.70 325.82, 450.82 321.53, 451.02 315.12 C 451.21 308.71, 451.47 305.89, 451.21 301.70 C 450.95 297.50, 450.83 295.62, 449.73 294.16 C 448.63 292.71, 446.61 292.87, 445.70 294.42" style="stroke: black; fill: black;"/><path d="M 437.28,284.63 C 438.62 284.70, 439.02 284.22, 440.30 283.46 C 441.57 282.70, 442.19 282.34, 443.66 280.83 C 445.13 279.32, 445.40 277.88, 447.66 275.89 C 449.93 273.91, 451.49 272.68, 454.99 270.91 C 458.48 269.15, 460.77 268.20, 465.14 267.06 C 469.51 265.93, 472.09 265.45, 476.85 265.24 C 481.62 265.04, 484.29 265.18, 488.96 266.03 C 493.62 266.88, 496.13 267.60, 500.18 269.49 C 504.24 271.37, 506.24 272.65, 509.23 275.43 C 512.22 278.21, 513.47 279.95, 515.14 283.38 C 516.81 286.82, 517.32 288.79, 517.58 292.62 C 517.84 296.44, 517.60 298.55, 516.44 302.49 C 515.28 306.43, 514.20 308.61, 511.76 312.31 C 509.33 316.01, 507.53 317.96, 504.26 321.00 C 501.00 324.04, 498.87 325.50, 495.45 327.51 C 492.03 329.52, 489.74 329.69, 487.17 331.05 C 484.59 332.41, 483.51 332.94, 482.57 334.30 C 481.63 335.67, 481.79 336.61, 482.47 337.86 C 483.15 339.11, 483.95 340.17, 485.97 340.56 C 487.98 340.95, 489.29 340.33, 492.54 339.78 C 495.79 339.24, 497.90 338.17, 502.21 337.84 C 506.51 337.50, 509.21 337.47, 514.07 338.09 C 518.93 338.71, 521.74 339.28, 526.50 340.93 C 531.27 342.59, 533.80 343.70, 537.90 346.37 C 541.99 349.04, 543.96 350.72, 546.98 354.30 C 550.00 357.88, 551.30 359.99, 553.00 364.26 C 554.70 368.53, 555.28 370.90, 555.47 375.65 C 555.67 380.39, 555.41 383.02, 553.98 388.00 C 552.55 392.99, 551.42 395.69, 548.32 400.57 C 545.22 405.46, 543.16 407.99, 538.48 412.42 C 533.81 416.85, 530.87 419.06, 524.94 422.73 C 519.00 426.39, 515.48 428.10, 508.81 430.75 C 502.15 433.40, 498.39 434.48, 491.60 435.97 C 484.82 437.46, 481.21 437.90, 474.88 438.20 C 468.56 438.50, 465.34 438.30, 459.99 437.48 C 454.65 436.66, 452.10 435.87, 448.15 434.10 C 444.19 432.33, 442.72 430.76, 440.23 428.63 C 437.75 426.51, 437.33 425.14, 435.72 423.50 C 434.11 421.85, 433.47 420.76, 432.18 420.43 C 430.89 420.09, 429.71 420.38, 429.27 421.82 C 428.83 423.26, 428.63 425.19, 429.98 427.64 C 431.32 430.09, 432.77 431.75, 435.99 434.08 C 439.22 436.40, 441.43 437.65, 446.11 439.28 C 450.78 440.91, 453.57 441.57, 459.37 442.22 C 465.18 442.87, 468.51 442.96, 475.14 442.51 C 481.76 442.06, 485.46 441.57, 492.50 439.97 C 499.53 438.38, 503.38 437.27, 510.31 434.54 C 517.24 431.80, 520.88 430.08, 527.13 426.31 C 533.37 422.54, 536.48 420.31, 541.52 415.69 C 546.57 411.07, 548.88 408.44, 552.36 403.20 C 555.84 397.95, 557.22 395.02, 558.92 389.47 C 560.62 383.93, 561.03 380.90, 560.87 375.46 C 560.71 370.01, 560.06 367.18, 558.13 362.24 C 556.19 357.30, 554.63 354.85, 551.19 350.75 C 547.75 346.66, 545.49 344.80, 540.94 341.76 C 536.40 338.72, 533.63 337.53, 528.46 335.56 C 523.30 333.59, 520.34 332.98, 515.11 331.90 C 509.88 330.82, 507.07 330.64, 502.31 330.17 C 497.56 329.71, 495.06 329.29, 491.33 329.58 C 487.60 329.86, 485.64 330.18, 483.67 331.59 C 481.69 333.00, 481.32 334.93, 481.47 336.62 C 481.61 338.30, 482.49 339.55, 484.39 340.01 C 486.29 340.46, 487.99 340.24, 490.98 338.90 C 493.97 337.56, 495.80 335.96, 499.34 333.29 C 502.87 330.63, 505.15 329.08, 508.67 325.56 C 512.19 322.04, 514.20 319.95, 516.96 315.69 C 519.71 311.43, 521.06 308.96, 522.44 304.26 C 523.82 299.55, 524.21 296.90, 523.87 292.17 C 523.52 287.45, 522.83 284.87, 520.72 280.63 C 518.62 276.40, 516.94 274.28, 513.32 270.98 C 509.71 267.69, 507.30 266.29, 502.64 264.15 C 497.98 262.01, 495.21 261.28, 490.02 260.30 C 484.83 259.31, 481.95 259.14, 476.69 259.21 C 471.43 259.28, 468.64 259.71, 463.72 260.63 C 458.79 261.55, 456.36 262.36, 452.06 263.82 C 447.75 265.27, 445.56 266.02, 442.19 267.90 C 438.82 269.78, 437.11 270.99, 435.21 273.21 C 433.32 275.44, 433.03 277.04, 432.71 279.02 C 432.38 281.00, 432.66 282.00, 433.57 283.12 C 434.49 284.25, 435.94 284.57, 437.28 284.63" style="stroke: black; fill: black;"/><path d="M 614.92,289.88 C 613.96 291.13, 613.79 292.33, 613.97 295.34 C 614.15 298.35, 615.17 300.13, 615.83 304.91 C 616.48 309.70, 617.01 312.85, 617.23 319.27 C 617.46 325.70, 617.36 329.48, 616.96 337.04 C 616.56 344.59, 616.11 348.91, 615.22 357.04 C 614.32 365.17, 613.70 369.59, 612.49 377.69 C 611.27 385.79, 610.52 390.00, 609.16 397.54 C 607.80 405.07, 607.07 408.94, 605.69 415.37 C 604.30 421.80, 603.48 424.92, 602.22 429.70 C 600.96 434.48, 599.98 436.37, 599.39 439.28 C 598.79 442.19, 598.82 443.07, 599.26 444.24 C 599.70 445.42, 600.43 445.81, 601.59 445.16 C 602.74 444.50, 603.90 443.84, 605.05 440.98 C 606.19 438.12, 606.34 435.81, 607.30 430.85 C 608.25 425.89, 608.71 422.70, 609.83 416.17 C 610.94 409.63, 611.62 405.77, 612.87 398.18 C 614.13 390.59, 614.87 386.37, 616.10 378.23 C 617.32 370.09, 617.96 365.65, 618.98 357.48 C 620.00 349.30, 620.50 344.98, 621.20 337.34 C 621.89 329.70, 622.20 325.87, 622.45 319.28 C 622.71 312.69, 622.58 309.43, 622.47 304.40 C 622.36 299.37, 622.66 297.20, 621.92 294.14 C 621.18 291.07, 620.18 289.93, 618.78 289.08 C 617.39 288.22, 615.88 288.63, 614.92 289.88" style="stroke: black; fill: black;"/><path d="M 619.82,283.44 C 621.43 283.70, 622.55 282.73, 624.50 281.79 C 626.45 280.85, 627.24 280.00, 629.57 278.74 C 631.90 277.47, 633.19 276.24, 636.14 275.45 C 639.08 274.66, 640.85 274.56, 644.31 274.81 C 647.77 275.05, 649.88 275.50, 653.44 276.68 C 657.00 277.86, 658.90 278.68, 662.12 280.69 C 665.34 282.70, 666.96 284.01, 669.53 286.73 C 672.10 289.45, 673.30 291.09, 674.96 294.30 C 676.62 297.52, 677.24 299.26, 677.83 302.79 C 678.42 306.33, 678.52 308.20, 677.90 311.98 C 677.29 315.76, 676.69 317.80, 674.76 321.70 C 672.84 325.60, 671.38 327.70, 668.27 331.47 C 665.16 335.24, 663.09 337.19, 659.22 340.57 C 655.36 343.94, 653.02 345.57, 648.94 348.33 C 644.86 351.09, 642.61 352.31, 638.82 354.35 C 635.03 356.40, 633.04 356.95, 630.00 358.54 C 626.96 360.13, 625.52 360.57, 623.62 362.30 C 621.71 364.03, 621.15 365.07, 620.47 367.21 C 619.78 369.35, 619.68 370.65, 620.18 372.99 C 620.69 375.33, 621.09 376.78, 622.99 378.92 C 624.88 381.07, 626.64 381.51, 629.67 383.72 C 632.70 385.93, 634.57 387.09, 638.14 389.97 C 641.71 392.84, 643.72 394.60, 647.51 398.10 C 651.31 401.61, 653.34 403.64, 657.11 407.50 C 660.87 411.36, 662.80 413.49, 666.33 417.41 C 669.86 421.34, 671.63 423.44, 674.78 427.14 C 677.93 430.84, 679.43 432.71, 682.07 435.92 C 684.70 439.13, 685.61 440.92, 687.95 443.18 C 690.28 445.43, 691.72 446.27, 693.76 447.19 C 695.79 448.11, 696.93 448.15, 698.14 447.79 C 699.34 447.42, 699.81 446.55, 699.77 445.35 C 699.73 444.15, 699.18 443.39, 697.94 441.78 C 696.69 440.16, 695.75 439.36, 693.56 437.29 C 691.36 435.22, 689.84 434.25, 686.96 431.44 C 684.08 428.63, 682.47 426.79, 679.17 423.24 C 675.87 419.68, 674.04 417.60, 670.44 413.68 C 666.85 409.75, 664.91 407.60, 661.18 403.61 C 657.45 399.63, 655.43 397.52, 651.79 393.74 C 648.15 389.96, 646.20 388.06, 642.98 384.70 C 639.77 381.34, 638.22 379.63, 635.72 376.92 C 633.23 374.21, 632.37 372.64, 630.52 371.15 C 628.66 369.66, 627.45 369.81, 626.45 369.48 C 625.45 369.15, 625.19 369.66, 625.54 369.49 C 625.89 369.32, 626.54 369.47, 628.20 368.62 C 629.86 367.77, 631.05 366.98, 633.84 365.23 C 636.62 363.48, 638.42 362.30, 642.12 359.88 C 645.81 357.46, 648.12 356.13, 652.29 353.13 C 656.47 350.13, 658.89 348.46, 662.99 344.88 C 667.08 341.30, 669.32 339.32, 672.79 335.25 C 676.25 331.18, 677.98 328.95, 680.30 324.52 C 682.61 320.09, 683.51 317.67, 684.36 313.11 C 685.21 308.56, 685.20 306.13, 684.56 301.74 C 683.91 297.35, 683.11 295.11, 681.12 291.16 C 679.12 287.21, 677.63 285.27, 674.59 282.00 C 671.54 278.72, 669.64 277.21, 665.89 274.78 C 662.14 272.35, 660.00 271.39, 655.85 269.85 C 651.71 268.30, 649.44 267.68, 645.17 267.07 C 640.90 266.46, 638.54 266.25, 634.50 266.79 C 630.46 267.32, 628.20 268.17, 624.98 269.73 C 621.76 271.29, 620.11 272.42, 618.40 274.58 C 616.69 276.73, 616.17 278.72, 616.45 280.49 C 616.74 282.27, 618.21 283.18, 619.82 283.44" style="stroke: black; fill: black;"/><path d="M 781.75,308.42 C 780.45 309.21, 779.59 309.95, 778.97 312.65 C 778.36 315.35, 779.06 317.26, 778.69 321.94 C 778.32 326.62, 778.07 329.66, 777.14 336.04 C 776.22 342.42, 775.57 346.33, 774.06 353.86 C 772.54 361.39, 771.49 365.70, 769.59 373.68 C 767.68 381.67, 766.57 386.02, 764.53 393.79 C 762.50 401.57, 761.37 405.59, 759.41 412.56 C 757.46 419.54, 756.35 423.03, 754.77 428.66 C 753.18 434.28, 752.27 436.81, 751.47 440.69 C 750.66 444.56, 750.29 446.42, 750.73 448.03 C 751.18 449.64, 752.56 449.97, 753.69 448.75 C 754.82 447.53, 755.29 445.71, 756.40 441.92 C 757.51 438.14, 757.88 435.50, 759.25 429.83 C 760.61 424.16, 761.46 420.60, 763.24 413.58 C 765.01 406.56, 766.12 402.53, 768.13 394.73 C 770.14 386.93, 771.27 382.58, 773.30 374.59 C 775.32 366.60, 776.42 362.30, 778.24 354.78 C 780.05 347.27, 780.90 343.39, 782.37 337.02 C 783.84 330.66, 784.55 327.66, 785.58 322.97 C 786.62 318.28, 787.59 316.42, 787.57 313.57 C 787.55 310.71, 786.65 309.74, 785.49 308.71 C 784.33 307.68, 783.06 307.63, 781.75 308.42" style="stroke: black; fill: black;"/><path d="M 794.66,299.87 C 793.86 301.08, 793.65 301.93, 794.11 304.32 C 794.56 306.71, 795.65 307.86, 796.94 311.83 C 798.23 315.81, 799.27 318.44, 800.54 324.19 C 801.81 329.95, 802.36 333.50, 803.29 340.62 C 804.23 347.74, 804.56 351.92, 805.23 359.79 C 805.91 367.66, 806.16 372.00, 806.67 379.97 C 807.17 387.93, 807.32 392.15, 807.76 399.62 C 808.21 407.09, 808.45 410.86, 808.89 417.30 C 809.33 423.73, 809.48 426.81, 809.97 431.80 C 810.47 436.78, 810.57 439.05, 811.38 442.23 C 812.19 445.41, 812.93 446.72, 814.02 447.70 C 815.12 448.68, 816.23 448.42, 816.85 447.12 C 817.48 445.82, 817.51 444.39, 817.17 441.19 C 816.83 437.99, 815.95 435.97, 815.16 431.11 C 814.36 426.26, 813.88 423.26, 813.18 416.91 C 812.48 410.56, 812.19 406.80, 811.64 399.36 C 811.10 391.93, 810.94 387.70, 810.45 379.73 C 809.96 371.76, 809.73 367.41, 809.20 359.49 C 808.68 351.57, 808.43 347.38, 807.83 340.13 C 807.23 332.89, 806.91 329.28, 806.21 323.25 C 805.51 317.21, 805.14 314.34, 804.32 309.97 C 803.51 305.61, 803.38 303.77, 802.14 301.43 C 800.90 299.09, 799.60 298.60, 798.11 298.29 C 796.61 297.97, 795.46 298.66, 794.66 299.87" style="stroke: black; fill: black;"/><path d="M 750.83,386.29 C 751.92 387.39, 752.89 387.96, 755.80 388.03 C 758.72 388.10, 760.73 387.22, 765.39 386.66 C 770.05 386.11, 773.17 385.68, 779.12 385.26 C 785.06 384.84, 788.65 384.74, 795.12 384.57 C 801.59 384.39, 805.57 384.40, 811.46 384.40 C 817.35 384.40, 820.27 384.67, 824.55 384.57 C 828.84 384.47, 831.21 384.69, 832.90 383.88 C 834.60 383.07, 834.66 381.44, 833.01 380.53 C 831.36 379.61, 828.97 379.58, 824.66 379.30 C 820.35 379.03, 817.38 379.13, 811.45 379.16 C 805.52 379.18, 801.54 379.38, 795.03 379.44 C 788.52 379.49, 784.93 379.42, 778.91 379.43 C 772.89 379.44, 769.73 379.47, 764.95 379.49 C 760.18 379.51, 757.95 378.94, 755.03 379.55 C 752.11 380.16, 751.19 381.18, 750.35 382.53 C 749.51 383.87, 749.74 385.19, 750.83 386.29" style="stroke: black; fill: black;"/><path d="M 884.44,335.98 C 883.42 337.18, 883.24 338.35, 883.20 341.51 C 883.15 344.67, 883.91 346.73, 884.24 351.79 C 884.56 356.85, 884.82 360.18, 884.82 366.81 C 884.82 373.44, 884.66 377.47, 884.24 384.95 C 883.81 392.43, 883.37 396.75, 882.70 404.21 C 882.02 411.67, 881.55 415.73, 880.85 422.26 C 880.15 428.78, 879.73 432.01, 879.21 436.84 C 878.68 441.68, 877.70 443.74, 878.23 446.43 C 878.76 449.12, 880.16 450.17, 881.87 450.28 C 883.58 450.39, 885.75 449.75, 886.79 446.98 C 887.82 444.21, 886.95 441.59, 887.04 436.44 C 887.13 431.30, 887.03 427.85, 887.25 421.25 C 887.47 414.66, 887.65 410.57, 888.15 403.46 C 888.65 396.35, 889.02 392.35, 889.73 385.69 C 890.43 379.03, 890.80 375.73, 891.69 370.17 C 892.57 364.60, 893.16 361.92, 894.15 357.87 C 895.14 353.82, 896.27 352.09, 896.65 349.91 C 897.03 347.72, 896.30 346.93, 896.05 346.95 C 895.81 346.96, 894.80 347.81, 895.45 349.98 C 896.09 352.16, 897.59 353.56, 899.30 357.82 C 901.00 362.08, 902.12 365.27, 903.97 371.29 C 905.81 377.32, 906.76 381.22, 908.54 387.96 C 910.32 394.69, 911.18 398.51, 912.86 404.95 C 914.54 411.38, 915.36 414.66, 916.95 420.13 C 918.54 425.60, 919.21 428.14, 920.81 432.29 C 922.41 436.45, 922.78 438.54, 924.95 440.90 C 927.12 443.26, 928.89 443.85, 931.65 444.08 C 934.42 444.32, 936.44 444.15, 938.78 442.06 C 941.12 439.96, 941.61 437.99, 943.34 433.60 C 945.07 429.21, 945.74 426.25, 947.43 420.10 C 949.13 413.96, 949.97 410.06, 951.82 402.87 C 953.66 395.69, 954.76 391.43, 956.66 384.18 C 958.55 376.93, 959.59 373.08, 961.31 366.64 C 963.03 360.19, 963.77 357.06, 965.26 351.93 C 966.75 346.80, 967.60 344.66, 968.74 340.99 C 969.87 337.31, 970.59 335.98, 970.93 333.57 C 971.27 331.16, 971.08 330.01, 970.45 328.93 C 969.82 327.84, 968.89 327.56, 967.77 328.14 C 966.65 328.71, 965.85 329.56, 964.84 331.80 C 963.83 334.05, 963.59 335.58, 962.72 339.37 C 961.84 343.15, 961.59 345.49, 960.47 350.72 C 959.35 355.96, 958.68 359.09, 957.10 365.56 C 955.52 372.03, 954.51 375.88, 952.57 383.09 C 950.63 390.31, 949.48 394.59, 947.39 401.65 C 945.30 408.71, 944.24 412.59, 942.11 418.40 C 939.98 424.21, 938.58 426.98, 936.74 430.70 C 934.90 434.41, 933.80 435.33, 932.90 436.96 C 932.01 438.59, 932.70 438.99, 932.26 438.85 C 931.81 438.71, 931.86 438.07, 930.67 436.27 C 929.48 434.47, 928.09 433.40, 926.29 429.87 C 924.50 426.34, 923.49 423.85, 921.69 418.63 C 919.89 413.41, 919.01 410.14, 917.30 403.77 C 915.60 397.41, 914.75 393.59, 913.17 386.80 C 911.59 380.02, 910.84 376.10, 909.41 369.84 C 907.99 363.59, 907.42 360.34, 906.04 355.53 C 904.66 350.72, 904.61 348.23, 902.52 345.79 C 900.42 343.34, 898.10 342.98, 895.57 343.30 C 893.05 343.61, 891.36 344.67, 889.90 347.36 C 888.44 350.06, 888.89 352.33, 888.28 356.76 C 887.68 361.20, 887.47 363.83, 886.87 369.53 C 886.26 375.22, 885.93 378.53, 885.27 385.23 C 884.60 391.94, 884.25 395.95, 883.55 403.07 C 882.85 410.20, 882.48 414.30, 881.77 420.87 C 881.07 427.44, 880.68 430.90, 880.01 435.92 C 879.35 440.95, 878.09 443.24, 878.47 445.99 C 878.85 448.73, 880.61 449.54, 881.90 449.63 C 883.18 449.72, 884.35 448.94, 884.90 446.45 C 885.45 443.97, 884.58 441.95, 884.66 437.18 C 884.74 432.42, 884.85 429.16, 885.29 422.64 C 885.72 416.12, 886.17 412.06, 886.84 404.58 C 887.50 397.10, 887.96 392.77, 888.59 385.25 C 889.22 377.73, 889.56 373.68, 889.98 366.97 C 890.40 360.26, 890.51 356.90, 890.70 351.71 C 890.89 346.51, 891.39 344.23, 890.91 340.99 C 890.44 337.75, 889.62 336.51, 888.32 335.51 C 887.03 334.51, 885.47 334.78, 884.44 335.98" style="stroke: black; fill: black;"/><path d="M 1014.05,329.96 C 1012.90 331.08, 1012.39 332.31, 1012.22 335.31 C 1012.05 338.30, 1012.84 340.25, 1013.19 344.92 C 1013.54 349.59, 1013.85 352.63, 1013.97 358.64 C 1014.10 364.66, 1014.05 368.22, 1013.83 374.98 C 1013.60 381.75, 1013.31 385.56, 1012.84 392.45 C 1012.38 399.34, 1012.05 403.05, 1011.49 409.42 C 1010.92 415.79, 1010.64 419.10, 1010.03 424.29 C 1009.41 429.49, 1008.71 431.86, 1008.41 435.40 C 1008.12 438.95, 1008.26 440.09, 1008.56 442.01 C 1008.85 443.93, 1009.20 444.36, 1009.88 445.00 C 1010.57 445.64, 1011.18 445.73, 1011.99 445.23 C 1012.80 444.73, 1013.31 444.35, 1013.94 442.49 C 1014.57 440.63, 1014.87 439.49, 1015.14 435.94 C 1015.41 432.38, 1015.10 429.93, 1015.29 424.70 C 1015.48 419.46, 1015.68 416.15, 1016.08 409.77 C 1016.48 403.38, 1016.79 399.67, 1017.29 392.76 C 1017.79 385.85, 1018.12 382.03, 1018.59 375.23 C 1019.05 368.42, 1019.30 364.82, 1019.63 358.74 C 1019.95 352.65, 1020.03 349.55, 1020.21 344.79 C 1020.39 340.03, 1020.97 337.95, 1020.53 334.94 C 1020.09 331.92, 1019.31 330.70, 1018.01 329.71 C 1016.72 328.71, 1015.21 328.84, 1014.05 329.96" style="stroke: black; fill: black;"/><path d="M 1001.02,323.93 C 1002.89 324.01, 1004.47 322.30, 1008.11 320.70 C 1011.75 319.10, 1013.95 317.56, 1019.22 315.93 C 1024.49 314.30, 1028.02 313.07, 1034.45 312.56 C 1040.87 312.04, 1044.58 312.18, 1051.33 313.37 C 1058.09 314.55, 1061.74 315.68, 1068.21 318.49 C 1074.67 321.30, 1078.00 323.15, 1083.65 327.41 C 1089.31 331.68, 1092.09 334.31, 1096.49 339.80 C 1100.89 345.30, 1102.87 348.52, 1105.64 354.89 C 1108.42 361.25, 1109.45 364.77, 1110.37 371.62 C 1111.29 378.47, 1111.27 382.20, 1110.24 389.14 C 1109.21 396.07, 1108.07 399.79, 1105.23 406.29 C 1102.39 412.78, 1100.37 416.04, 1096.05 421.63 C 1091.73 427.22, 1088.98 429.89, 1083.62 434.23 C 1078.25 438.57, 1075.05 440.49, 1069.24 443.34 C 1063.42 446.19, 1060.18 447.17, 1054.54 448.47 C 1048.90 449.77, 1045.96 449.96, 1041.04 449.83 C 1036.13 449.70, 1033.75 449.15, 1029.94 447.82 C 1026.13 446.48, 1024.57 444.69, 1021.99 443.17 C 1019.40 441.65, 1018.67 441.11, 1017.01 440.23 C 1015.36 439.35, 1014.80 438.74, 1013.69 438.79 C 1012.58 438.85, 1011.67 439.27, 1011.47 440.50 C 1011.28 441.74, 1011.36 443.09, 1012.70 444.95 C 1014.05 446.82, 1015.07 448.09, 1018.19 449.82 C 1021.31 451.56, 1023.74 452.62, 1028.31 453.64 C 1032.88 454.66, 1035.59 455.07, 1041.05 454.93 C 1046.52 454.78, 1049.61 454.46, 1055.63 452.90 C 1061.64 451.34, 1065.02 450.23, 1071.13 447.11 C 1077.23 444.00, 1080.55 441.96, 1086.16 437.34 C 1091.77 432.72, 1094.63 429.93, 1099.16 424.03 C 1103.69 418.13, 1105.82 414.71, 1108.81 407.85 C 1111.80 400.98, 1113.02 397.06, 1114.10 389.71 C 1115.19 382.36, 1115.22 378.38, 1114.25 371.10 C 1113.27 363.83, 1112.17 360.07, 1109.23 353.32 C 1106.29 346.57, 1104.18 343.17, 1099.54 337.36 C 1094.90 331.55, 1091.97 328.79, 1086.02 324.28 C 1080.08 319.77, 1076.61 317.84, 1069.83 314.81 C 1063.05 311.78, 1059.26 310.57, 1052.13 309.14 C 1045.00 307.71, 1041.05 307.40, 1034.16 307.66 C 1027.27 307.92, 1023.44 308.98, 1017.68 310.44 C 1011.92 311.91, 1009.15 313.02, 1005.36 314.99 C 1001.58 316.96, 999.63 318.52, 998.76 320.31 C 997.89 322.10, 999.15 323.85, 1001.02 323.93" style="stroke: black; fill: black;"/></svg>