<svg xmlns="http://www.w3.org/2000/svg" id="canvas" viewBox="319.483 260.043 697.649 295.755"><path d="M 341.59,264.87 C 340.44 266.14, 340.30 267.75, 339.82 271.53 C 339.33 275.30, 339.53 277.77, 339.17 283.76 C 338.80 289.74, 338.62 293.75, 337.99 301.45 C 337.36 309.15, 336.94 313.58, 336.03 322.25 C 335.13 330.92, 334.56 335.74, 333.45 344.79 C 332.34 353.84, 331.67 358.73, 330.50 367.50 C 329.33 376.27, 328.70 380.82, 327.62 388.64 C 326.54 396.46, 326.04 400.39, 325.10 406.62 C 324.16 412.84, 323.35 415.62, 322.93 419.75 C 322.51 423.88, 322.15 425.38, 323.00 427.26 C 323.85 429.14, 325.37 429.59, 327.17 429.13 C 328.97 428.67, 330.58 427.86, 332.00 424.96 C 333.42 422.05, 333.01 419.46, 334.28 414.62 C 335.55 409.78, 336.22 406.61, 338.35 400.77 C 340.48 394.93, 341.92 391.48, 344.95 385.44 C 347.98 379.40, 349.84 376.08, 353.50 370.58 C 357.16 365.08, 359.27 362.33, 363.24 357.95 C 367.21 353.58, 369.40 351.66, 373.35 348.72 C 377.29 345.79, 379.41 344.65, 382.97 343.27 C 386.53 341.89, 388.24 341.75, 391.16 341.82 C 394.07 341.89, 395.19 342.24, 397.54 343.64 C 399.90 345.05, 401.01 345.85, 402.95 348.86 C 404.88 351.87, 405.94 353.93, 407.23 358.69 C 408.53 363.45, 408.97 366.58, 409.40 372.66 C 409.83 378.74, 409.74 382.48, 409.38 389.10 C 409.02 395.72, 408.45 399.48, 407.61 405.76 C 406.78 412.03, 406.20 415.45, 405.23 420.48 C 404.25 425.51, 403.20 427.63, 402.75 430.89 C 402.30 434.15, 402.67 435.14, 403.00 436.79 C 403.32 438.43, 403.76 438.64, 404.38 439.12 C 404.99 439.60, 405.42 439.55, 406.08 439.21 C 406.74 438.86, 406.95 438.83, 407.67 437.39 C 408.40 435.95, 409.12 435.23, 409.71 432.01 C 410.31 428.79, 410.10 426.42, 410.63 421.28 C 411.17 416.15, 411.69 412.71, 412.38 406.33 C 413.08 399.95, 413.68 396.17, 414.11 389.38 C 414.54 382.59, 414.77 378.80, 414.54 372.39 C 414.30 365.97, 414.11 362.71, 412.92 357.30 C 411.74 351.90, 410.95 349.30, 408.59 345.37 C 406.23 341.43, 404.60 339.65, 401.12 337.61 C 397.63 335.56, 395.27 335.08, 391.18 335.13 C 387.09 335.17, 384.87 335.93, 380.67 337.84 C 376.47 339.75, 374.37 341.27, 370.19 344.67 C 366.01 348.08, 363.85 350.18, 359.77 354.87 C 355.68 359.55, 353.57 362.41, 349.77 368.09 C 345.98 373.77, 344.09 377.16, 340.79 383.27 C 337.49 389.39, 335.96 392.87, 333.27 398.66 C 330.58 404.46, 329.34 407.56, 327.35 412.24 C 325.35 416.93, 323.83 419.03, 323.30 422.10 C 322.76 425.16, 323.77 426.55, 324.65 427.58 C 325.54 428.60, 326.89 428.67, 327.70 427.21 C 328.52 425.75, 328.39 424.31, 328.72 420.29 C 329.05 416.26, 328.86 413.35, 329.36 407.11 C 329.86 400.87, 330.31 396.93, 331.20 389.09 C 332.10 381.26, 332.71 376.71, 333.82 367.93 C 334.94 359.16, 335.62 354.26, 336.79 345.21 C 337.96 336.16, 338.57 331.34, 339.69 322.68 C 340.81 314.02, 341.39 309.59, 342.38 301.91 C 343.38 294.23, 343.86 290.25, 344.65 284.28 C 345.43 278.32, 346.12 275.92, 346.31 272.10 C 346.50 268.28, 346.53 266.63, 345.58 265.18 C 344.64 263.74, 342.74 263.61, 341.59 264.87" style="stroke: black; fill: black;"/><path d="M 465.03,351.12 C 463.83 352.18, 463.29 353.34, 462.91 356.46 C 462.54 359.58, 463.17 361.79, 463.15 366.72 C 463.13 371.65, 463.17 375.04, 462.83 381.11 C 462.49 387.18, 462.13 390.85, 461.46 397.08 C 460.79 403.32, 460.32 406.93, 459.48 412.29 C 458.63 417.65, 457.78 420.19, 457.26 423.90 C 456.74 427.61, 456.69 428.82, 456.88 430.85 C 457.07 432.88, 457.53 433.36, 458.21 434.05 C 458.88 434.73, 459.47 434.76, 460.27 434.27 C 461.08 433.77, 461.51 433.46, 462.23 431.57 C 462.95 429.69, 463.33 428.56, 463.87 424.84 C 464.41 421.13, 464.36 418.43, 464.92 412.99 C 465.47 407.56, 465.92 403.95, 466.64 397.66 C 467.37 391.38, 467.89 387.71, 468.56 381.59 C 469.24 375.46, 469.54 372.04, 470.01 367.05 C 470.47 362.07, 471.10 359.84, 470.89 356.66 C 470.67 353.49, 470.10 352.29, 468.93 351.18 C 467.75 350.07, 466.23 350.06, 465.03 351.12" style="stroke: black; fill: black;"/><path d="M 477.18,279.99 C 478.16 278.81, 478.24 278.20, 477.90 278.19 C 477.56 278.17, 476.46 279.06, 475.50 279.93 C 474.54 280.80, 473.92 281.55, 473.08 282.54 C 472.24 283.53, 471.32 284.56, 471.30 284.86 C 471.29 285.17, 471.82 285.03, 473.00 284.06 C 474.17 283.08, 476.20 281.16, 477.18 279.99" style="stroke: black; fill: black;"/><path d="M 571.01,338.47 C 570.32 337.08, 569.33 336.28, 567.11 335.57 C 564.90 334.85, 563.27 334.60, 559.92 334.89 C 556.58 335.18, 554.31 335.84, 550.39 337.01 C 546.47 338.17, 544.22 339.01, 540.31 340.71 C 536.41 342.42, 534.33 343.39, 530.85 345.55 C 527.36 347.70, 525.48 348.76, 522.90 351.49 C 520.31 354.21, 518.99 355.84, 517.92 359.16 C 516.85 362.49, 516.66 364.68, 517.54 368.11 C 518.42 371.53, 519.75 373.24, 522.31 376.29 C 524.88 379.34, 526.80 380.63, 530.37 383.37 C 533.95 386.11, 536.22 387.36, 540.20 390.00 C 544.17 392.63, 546.50 393.93, 550.23 396.54 C 553.96 399.15, 555.96 400.51, 558.83 403.06 C 561.70 405.61, 562.94 407.02, 564.57 409.27 C 566.20 411.53, 566.60 412.51, 566.97 414.32 C 567.33 416.14, 567.18 416.63, 566.37 418.36 C 565.57 420.09, 564.97 421.03, 562.96 422.99 C 560.95 424.95, 559.58 426.25, 556.33 428.16 C 553.08 430.07, 550.91 431.13, 546.72 432.53 C 542.53 433.93, 539.89 434.56, 535.37 435.18 C 530.84 435.81, 528.21 435.74, 524.09 435.65 C 519.97 435.56, 517.88 434.81, 514.75 434.71 C 511.62 434.61, 509.85 434.39, 508.44 435.15 C 507.03 435.91, 506.62 437.21, 507.69 438.52 C 508.75 439.84, 510.49 440.91, 513.76 441.72 C 517.03 442.53, 519.52 442.58, 524.03 442.56 C 528.53 442.54, 531.33 442.34, 536.27 441.64 C 541.21 440.93, 544.01 440.39, 548.73 439.02 C 553.46 437.66, 555.90 436.81, 559.90 434.83 C 563.91 432.85, 565.87 431.79, 568.75 429.14 C 571.64 426.48, 573.10 424.85, 574.32 421.56 C 575.55 418.27, 575.58 416.06, 574.86 412.68 C 574.14 409.30, 573.03 407.63, 570.72 404.65 C 568.41 401.67, 566.65 400.47, 563.31 397.77 C 559.97 395.06, 557.86 393.80, 554.00 391.13 C 550.15 388.45, 547.83 387.11, 544.05 384.40 C 540.26 381.69, 538.15 380.26, 535.08 377.59 C 532.01 374.93, 530.56 373.42, 528.71 371.07 C 526.86 368.71, 526.41 367.67, 525.83 365.82 C 525.26 363.97, 525.23 363.54, 525.85 361.82 C 526.46 360.10, 527.09 359.14, 528.93 357.22 C 530.76 355.30, 532.13 354.02, 535.01 352.20 C 537.89 350.38, 539.83 349.39, 543.31 348.10 C 546.79 346.82, 548.89 346.30, 552.38 345.78 C 555.88 345.25, 557.91 345.72, 560.80 345.49 C 563.69 345.26, 564.88 345.23, 566.84 344.64 C 568.80 344.05, 569.75 343.77, 570.59 342.54 C 571.42 341.31, 571.71 339.87, 571.01 338.47" style="stroke: black; fill: black;"/><path d="M 635.24,263.82 C 634.02 264.78, 633.34 265.71, 633.01 268.47 C 632.68 271.22, 633.47 272.97, 633.59 277.61 C 633.71 282.25, 633.84 285.25, 633.61 291.67 C 633.38 298.08, 633.09 301.97, 632.45 309.68 C 631.81 317.39, 631.28 321.80, 630.40 330.22 C 629.51 338.63, 628.94 343.25, 628.01 351.76 C 627.08 360.26, 626.58 364.73, 625.75 372.75 C 624.91 380.77, 624.49 384.79, 623.83 391.86 C 623.17 398.94, 622.94 402.39, 622.44 408.13 C 621.94 413.87, 621.57 416.46, 621.31 420.57 C 621.05 424.69, 620.83 426.27, 621.14 428.71 C 621.45 431.14, 622.02 431.94, 622.87 432.76 C 623.71 433.57, 624.51 433.58, 625.37 432.78 C 626.23 431.99, 626.80 431.19, 627.17 428.78 C 627.54 426.38, 627.26 424.82, 627.23 420.74 C 627.21 416.66, 626.95 414.09, 627.05 408.37 C 627.15 402.66, 627.28 399.22, 627.74 392.17 C 628.19 385.12, 628.57 381.11, 629.32 373.10 C 630.08 365.10, 630.57 360.64, 631.52 352.14 C 632.47 343.65, 633.06 339.04, 634.09 330.64 C 635.12 322.23, 635.70 317.83, 636.66 310.12 C 637.63 302.41, 638.12 298.52, 638.90 292.08 C 639.68 285.65, 640.00 282.64, 640.55 277.93 C 641.10 273.22, 641.94 271.37, 641.65 268.52 C 641.35 265.67, 640.37 264.63, 639.09 263.69 C 637.80 262.75, 636.45 262.87, 635.24 263.82" style="stroke: black; fill: black;"/><path d="M 605.18,364.20 C 606.22 365.35, 607.30 365.89, 609.82 366.03 C 612.34 366.17, 613.87 365.43, 617.78 364.91 C 621.69 364.38, 624.27 363.87, 629.37 363.41 C 634.46 362.94, 637.50 362.79, 643.27 362.58 C 649.04 362.36, 652.69 362.40, 658.22 362.33 C 663.75 362.27, 666.71 362.48, 670.93 362.26 C 675.14 362.05, 677.62 362.16, 679.30 361.25 C 680.98 360.34, 680.99 358.64, 679.32 357.71 C 677.65 356.78, 675.16 356.81, 670.93 356.59 C 666.70 356.36, 663.72 356.54, 658.16 356.59 C 652.60 356.64, 648.96 356.79, 643.15 356.82 C 637.34 356.86, 634.29 356.79, 629.09 356.76 C 623.89 356.72, 621.21 356.56, 617.15 356.64 C 613.09 356.73, 611.29 356.46, 608.78 357.19 C 606.28 357.92, 605.34 358.88, 604.62 360.29 C 603.90 361.69, 604.14 363.05, 605.18 364.20" style="stroke: black; fill: black;"/><path d="M 748.83,361.02 C 748.65 359.52, 748.02 358.65, 746.34 357.40 C 744.66 356.16, 743.37 355.18, 740.44 354.79 C 737.51 354.39, 735.35 354.59, 731.69 355.42 C 728.02 356.25, 726.04 357.06, 722.11 358.94 C 718.17 360.82, 716.01 361.94, 712.00 364.81 C 707.99 367.69, 705.70 369.44, 702.04 373.31 C 698.38 377.18, 696.51 379.57, 693.69 384.18 C 690.87 388.79, 689.48 391.43, 687.94 396.38 C 686.39 401.33, 685.82 404.09, 685.98 408.93 C 686.14 413.77, 686.73 416.47, 688.74 420.58 C 690.75 424.70, 692.41 426.77, 696.03 429.50 C 699.65 432.23, 702.13 433.25, 706.86 434.24 C 711.59 435.22, 714.45 435.22, 719.68 434.44 C 724.91 433.66, 727.78 432.67, 733.00 430.34 C 738.23 428.00, 740.99 426.30, 745.82 422.75 C 750.65 419.20, 753.14 416.98, 757.15 412.57 C 761.16 408.16, 763.01 405.53, 765.89 400.72 C 768.77 395.91, 770.02 393.28, 771.55 388.51 C 773.09 383.73, 773.58 381.23, 773.58 376.84 C 773.59 372.44, 773.13 370.14, 771.56 366.55 C 769.99 362.95, 768.60 361.24, 765.72 358.88 C 762.83 356.51, 760.76 355.70, 757.14 354.71 C 753.51 353.73, 751.35 353.69, 747.58 353.96 C 743.80 354.22, 741.70 354.83, 738.26 356.04 C 734.81 357.24, 732.72 358.20, 730.36 360.00 C 727.99 361.80, 727.38 363.21, 726.42 365.03 C 725.46 366.84, 725.28 367.89, 725.54 369.09 C 725.81 370.29, 726.61 370.79, 727.73 371.05 C 728.84 371.30, 729.47 370.83, 731.12 370.35 C 732.76 369.87, 733.82 369.75, 735.95 368.64 C 738.07 367.54, 739.27 365.97, 741.76 364.81 C 744.25 363.64, 745.74 363.16, 748.41 362.82 C 751.07 362.49, 752.61 362.61, 755.09 363.12 C 757.56 363.62, 758.83 364.03, 760.80 365.35 C 762.77 366.67, 763.67 367.38, 764.93 369.72 C 766.19 372.05, 766.87 373.59, 767.09 377.02 C 767.31 380.44, 767.19 382.64, 766.03 386.85 C 764.87 391.05, 763.84 393.58, 761.30 398.04 C 758.77 402.49, 757.06 405.02, 753.35 409.11 C 749.64 413.21, 747.26 415.30, 742.75 418.53 C 738.24 421.76, 735.58 423.27, 730.81 425.27 C 726.03 427.27, 723.39 427.98, 718.87 428.54 C 714.35 429.09, 711.98 428.89, 708.20 428.04 C 704.41 427.19, 702.69 426.36, 699.94 424.30 C 697.20 422.24, 696.04 420.87, 694.47 417.75 C 692.90 414.63, 692.27 412.62, 692.08 408.69 C 691.89 404.77, 692.22 402.40, 693.54 398.11 C 694.85 393.83, 696.09 391.36, 698.66 387.25 C 701.23 383.14, 703.00 380.94, 706.41 377.57 C 709.82 374.20, 712.00 372.67, 715.72 370.40 C 719.43 368.13, 721.54 367.28, 725.00 366.24 C 728.45 365.19, 730.13 365.20, 732.97 365.18 C 735.80 365.15, 737.02 365.95, 739.17 366.12 C 741.32 366.29, 742.10 366.29, 743.72 366.04 C 745.34 365.79, 746.24 365.89, 747.26 364.88 C 748.28 363.88, 749.02 362.52, 748.83 361.02" style="stroke: black; fill: black;"/><path d="M 817.50,372.38 C 816.07 373.10, 815.30 374.13, 814.45 376.46 C 813.61 378.79, 813.69 380.45, 813.26 384.01 C 812.83 387.58, 812.83 390.03, 812.31 394.27 C 811.79 398.51, 811.40 401.01, 810.66 405.20 C 809.92 409.40, 809.27 411.70, 808.62 415.25 C 807.97 418.79, 807.14 420.54, 807.41 422.95 C 807.68 425.35, 808.52 426.40, 809.95 427.29 C 811.39 428.17, 812.85 428.29, 814.56 427.38 C 816.27 426.47, 817.55 425.52, 818.51 422.71 C 819.47 419.90, 818.69 417.60, 819.38 413.32 C 820.06 409.04, 820.48 406.28, 821.94 401.31 C 823.40 396.35, 824.45 393.48, 826.69 388.52 C 828.92 383.55, 830.30 380.91, 833.14 376.47 C 835.98 372.03, 837.66 369.82, 840.88 366.34 C 844.11 362.85, 845.86 361.33, 849.26 359.04 C 852.65 356.74, 854.65 356.07, 857.86 354.86 C 861.07 353.65, 862.86 353.94, 865.31 353.01 C 867.76 352.08, 869.23 351.46, 870.10 350.22 C 870.97 348.97, 870.96 347.76, 869.66 346.79 C 868.36 345.83, 866.53 345.10, 863.59 345.39 C 860.66 345.67, 858.58 346.48, 854.99 348.21 C 851.39 349.94, 849.27 351.19, 845.61 354.06 C 841.95 356.93, 840.11 358.68, 836.70 362.58 C 833.29 366.47, 831.58 368.83, 828.56 373.54 C 825.54 378.24, 824.13 380.98, 821.60 386.11 C 819.06 391.23, 817.96 394.17, 815.88 399.16 C 813.81 404.16, 812.87 406.90, 811.23 411.08 C 809.58 415.27, 808.11 417.16, 807.68 420.10 C 807.25 423.03, 808.06 424.36, 809.09 425.78 C 810.12 427.20, 811.44 427.56, 812.83 427.19 C 814.21 426.82, 815.24 426.08, 816.03 423.94 C 816.82 421.80, 816.37 419.97, 816.78 416.48 C 817.20 412.99, 817.41 410.67, 818.12 406.49 C 818.82 402.31, 819.45 399.81, 820.32 395.59 C 821.19 391.37, 821.84 388.97, 822.48 385.40 C 823.12 381.82, 823.71 380.21, 823.53 377.70 C 823.34 375.20, 822.77 373.94, 821.56 372.87 C 820.36 371.81, 818.92 371.66, 817.50 372.38" style="stroke: black; fill: black;"/><path d="M 909.14,356.49 C 907.93 357.38, 907.40 358.34, 907.05 360.56 C 906.71 362.78, 906.70 364.33, 907.41 367.60 C 908.13 370.87, 909.16 373.03, 910.62 376.91 C 912.08 380.78, 912.85 383.03, 914.71 386.97 C 916.57 390.91, 917.52 393.09, 919.91 396.60 C 922.30 400.12, 923.57 401.97, 926.65 404.56 C 929.73 407.15, 931.54 408.35, 935.33 409.55 C 939.11 410.76, 941.32 410.95, 945.57 410.60 C 949.83 410.25, 952.12 409.58, 956.60 407.82 C 961.07 406.06, 963.45 404.70, 967.95 401.80 C 972.45 398.90, 974.81 396.94, 979.11 393.31 C 983.40 389.68, 985.59 387.46, 989.44 383.66 C 993.28 379.86, 995.15 377.68, 998.35 374.31 C 1001.56 370.95, 1003.25 369.37, 1005.45 366.84 C 1007.65 364.31, 1008.65 363.28, 1009.35 361.67 C 1010.05 360.06, 1009.61 359.19, 1008.94 358.81 C 1008.27 358.42, 1006.87 358.33, 1006.01 359.74 C 1005.15 361.16, 1005.00 362.39, 1004.63 365.88 C 1004.26 369.38, 1004.75 371.83, 1004.15 377.21 C 1003.55 382.60, 1003.03 385.87, 1001.65 392.80 C 1000.26 399.73, 999.38 403.72, 997.21 411.88 C 995.04 420.05, 993.70 424.62, 990.80 433.63 C 987.90 442.65, 986.16 447.63, 982.71 456.97 C 979.25 466.32, 977.32 471.32, 973.53 480.36 C 969.73 489.39, 967.66 494.07, 963.74 502.15 C 959.81 510.23, 957.74 514.24, 953.89 520.76 C 950.04 527.28, 948.07 530.23, 944.48 534.73 C 940.90 539.22, 938.95 540.86, 935.98 543.23 C 933.01 545.59, 931.90 545.81, 929.64 546.55 C 927.38 547.29, 925.77 546.17, 924.66 546.92 C 923.55 547.67, 922.79 549.14, 924.09 550.29 C 925.39 551.45, 928.08 553.28, 931.16 552.68 C 934.25 552.09, 936.18 550.42, 939.52 547.34 C 942.87 544.26, 944.41 542.25, 947.90 537.28 C 951.39 532.32, 953.24 529.28, 956.98 522.53 C 960.72 515.77, 962.73 511.72, 966.59 503.52 C 970.46 495.32, 972.51 490.62, 976.31 481.52 C 980.10 472.43, 982.05 467.41, 985.57 458.04 C 989.09 448.67, 990.87 443.69, 993.92 434.66 C 996.97 425.64, 998.38 421.06, 1000.83 412.91 C 1003.28 404.75, 1004.26 400.77, 1006.16 393.88 C 1008.07 386.98, 1008.88 383.76, 1010.36 378.42 C 1011.85 373.07, 1012.93 370.86, 1013.58 367.14 C 1014.22 363.41, 1014.41 361.98, 1013.57 359.79 C 1012.73 357.61, 1011.24 356.82, 1009.39 356.23 C 1007.55 355.64, 1006.31 355.69, 1004.35 356.83 C 1002.38 357.98, 1001.71 359.27, 999.57 361.95 C 997.44 364.62, 996.50 366.68, 993.67 370.22 C 990.84 373.77, 989.05 375.92, 985.41 379.67 C 981.77 383.42, 979.61 385.56, 975.48 388.97 C 971.35 392.37, 969.01 394.16, 964.77 396.68 C 960.54 399.21, 958.24 400.26, 954.30 401.61 C 950.36 402.96, 948.42 403.26, 945.09 403.43 C 941.76 403.60, 940.37 403.36, 937.65 402.45 C 934.93 401.53, 933.80 400.84, 931.49 398.85 C 929.17 396.86, 928.01 395.49, 926.07 392.51 C 924.13 389.52, 923.19 387.54, 921.78 383.92 C 920.38 380.29, 919.87 378.08, 919.05 374.37 C 918.23 370.67, 918.33 368.41, 917.70 365.40 C 917.07 362.39, 916.83 361.18, 915.91 359.32 C 914.99 357.46, 914.47 356.67, 913.11 356.11 C 911.76 355.54, 910.36 355.60, 909.14 356.49" style="stroke: black; fill: black;"/></svg>