<?xml version="1.0" encoding="UTF-8"?>
<svg id="Layer_2" data-name="Layer 2" xmlns="http://www.w3.org/2000/svg" viewBox="0 0 220.4 78.36">
  <defs>
    <style>
      .cls-1 {
        stroke: #000;
      }
    </style>
  </defs>
  <g id="Hoodie">
    <path class="cls-1" d="M13.32.86c-.39.37-.38.67-.59,1.61-.2.95-.44,1.51-.44,3.13s.41,2.7.44,5.02c.04,2.33-.05,3.74-.27,6.6-.22,2.86-.44,4.52-.84,7.7-.4,3.18-.67,4.95-1.15,8.18-.48,3.23-.76,4.93-1.24,7.96s-.74,4.58-1.16,7.19c-.43,2.61-.8,3.92-.97,5.86-.17,1.94-.04,2.71.11,3.86.16,1.15.36,1.52.67,1.9.31.38.58.35.88,0,.3-.37.39-.72.62-1.82.24-1.09.35-1.76.55-3.67.19-1.9.15-3.22.41-5.82.27-2.6.5-4.16.92-7.19.42-3.03.7-4.73,1.19-7.97.49-3.23.79-5,1.27-8.18.49-3.18.75-4.84,1.18-7.72.43-2.88.64-4.3.95-6.68.31-2.39.62-3.51.6-5.23-.02-1.72-.33-2.36-.69-3.35-.35-.99-.61-1.31-1.1-1.59-.49-.27-.96-.14-1.34.22"/>
    <path class="cls-1" d="M29.25,8.58c-.39.3-.43.49-.66,1.32-.23.83-.46,1.32-.5,2.82-.05,1.51.22,2.51.26,4.69.05,2.18.06,3.56-.04,6.21-.1,2.65-.23,4.19-.46,7.03-.22,2.84-.38,4.4-.66,7.15-.28,2.76-.45,4.19-.72,6.62-.27,2.44-.46,3.59-.63,5.54-.17,1.94-.24,2.88-.23,4.2.01,1.31.11,1.72.3,2.39.2.67.46.76.67.95.22.2.32.02.41.04.1.01-.03.05.08.04.11,0,.24.14.47-.06.22-.2.44-.29.65-.94.22-.65.31-1.02.42-2.31.11-1.29.09-2.21.16-4.13.07-1.93.02-3.08.17-5.51.14-2.42.31-3.86.56-6.61.25-2.75.41-4.32.71-7.16.3-2.84.47-4.38.78-7.04.31-2.66.5-4.03.76-6.25.26-2.21.58-3.26.54-4.84-.04-1.58-.38-2.18-.73-3.05-.35-.87-.58-1.07-1.04-1.3-.46-.22-.89-.11-1.28.19"/>
    <path class="cls-1" d="M5.53,37.14c.34.42.64.53,1.57.75.94.22,1.57.42,3.13.36,1.56-.06,2.59-.4,4.66-.65,2.08-.26,3.35-.42,5.72-.63,2.37-.21,3.89-.26,6.14-.42,2.24-.16,3.43-.06,5.09-.36,1.67-.3,2.61-.67,3.24-1.14s.59-.86-.1-1.24c-.69-.37-1.67-.56-3.35-.62-1.69-.06-2.84.17-5.09.31-2.24.14-3.76.3-6.13.4s-3.65.09-5.75.11c-2.1.01-3.17-.19-4.73-.04-1.56.16-2.17.46-3.07.83-.91.36-1.18.53-1.45,1-.26.46-.23.92.11,1.34"/>
    <path class="cls-1" d="M65.87,33.27c-.05-.52-.23-.8-.77-1.23-.53-.42-.94-.68-1.9-.89-.97-.21-1.64-.27-2.92-.14-1.28.13-2,.28-3.46.77-1.46.49-2.31.78-3.83,1.69-1.52.91-2.35,1.52-3.76,2.85-1.41,1.33-2.14,2.16-3.29,3.8-1.15,1.64-1.73,2.58-2.48,4.39-.74,1.82-1.1,2.85-1.25,4.68-.16,1.83-.05,2.86.49,4.48.55,1.61,1.05,2.44,2.22,3.61,1.17,1.16,1.98,1.68,3.64,2.21,1.66.53,2.73.67,4.64.44,1.91-.22,2.99-.68,4.93-1.57,1.94-.89,2.94-1.54,4.76-2.88,1.82-1.33,2.75-2.17,4.33-3.8s2.35-2.59,3.53-4.36c1.19-1.76,1.79-2.72,2.41-4.48.62-1.76.71-2.74.68-4.32-.02-1.58-.22-2.36-.81-3.61s-1.13-1.82-2.15-2.6c-1.01-.78-1.78-1.06-2.94-1.29-1.16-.24-1.93-.16-2.87.11-.95.27-1.54.69-1.86,1.24-.32.55-.18,1.07.25,1.49.43.42,1.09.48,1.88.61.78.14,1.28-.01,2.04.07.76.08,1.18,0,1.77.32.6.32.9.58,1.21,1.3.31.71.43,1.19.34,2.3-.08,1.12-.25,1.82-.76,3.26-.52,1.43-.82,2.35-1.8,3.93-.98,1.58-1.68,2.5-3.09,3.97-1.41,1.46-2.31,2.23-3.96,3.37-1.65,1.13-2.61,1.66-4.28,2.32-1.67.67-2.59.8-4.06,1-1.47.19-2.15.2-3.28-.05-1.12-.26-1.6-.52-2.33-1.23-.73-.7-1.04-1.21-1.33-2.3-.29-1.09-.32-1.79-.14-3.16.18-1.37.4-2.21,1.01-3.68.62-1.48,1.09-2.33,2.09-3.69,1-1.35,1.69-2.03,2.93-3.08,1.24-1.06,1.99-1.48,3.26-2.17,1.27-.7,1.95-.97,3.08-1.33,1.13-.36,1.66-.38,2.59-.46.93-.08,1.35.08,2.06.07.71,0,.97,0,1.49-.12.52-.11.78-.1,1.11-.47.34-.37.59-.84.55-1.36"/>
    <path class="cls-1" d="M100.9,37.14c0-.53-.14-.88-.7-1.4-.55-.52-1-.87-2.08-1.2-1.07-.32-1.82-.47-3.29-.43-1.46.04-2.35.14-4.01.62-1.66.49-2.6.86-4.3,1.78s-2.63,1.52-4.19,2.81c-1.57,1.28-2.39,2.06-3.62,3.62-1.23,1.56-1.85,2.45-2.53,4.18-.68,1.72-.89,2.72-.86,4.44.04,1.71.25,2.68,1.04,4.13.79,1.45,1.46,2.17,2.9,3.11,1.43.94,2.4,1.33,4.27,1.6,1.87.26,3.01.11,5.07-.29,2.06-.4,3.2-.81,5.24-1.72,2.04-.91,3.11-1.55,4.96-2.83,1.85-1.28,2.78-2.06,4.28-3.58,1.49-1.52,2.24-2.36,3.2-4.02.97-1.65,1.32-2.59,1.61-4.24s.24-2.54-.14-4.01c-.37-1.46-.79-2.21-1.75-3.32-.95-1.11-1.73-1.64-3.01-2.24s-2.18-.75-3.37-.76c-1.19,0-2.03.27-2.58.71-.54.44-.53.97-.14,1.5.39.53,1.16.75,2.08,1.15.92.39,1.57.44,2.5.82s1.52.49,2.18,1.06c.67.58.92.94,1.13,1.82.22.89.22,1.45-.06,2.62-.29,1.16-.58,1.85-1.36,3.21-.78,1.35-1.28,2.2-2.54,3.55-1.26,1.36-2.12,2.1-3.76,3.23-1.65,1.13-2.66,1.69-4.48,2.43-1.81.74-2.86,1.01-4.58,1.26-1.72.25-2.62.17-4.03.01-1.4-.16-2.03-.29-3-.8-.97-.52-1.36-.91-1.84-1.78-.48-.88-.62-1.46-.56-2.6.05-1.14.26-1.82.83-3.11.57-1.3.99-2.08,2.01-3.35,1.03-1.28,1.74-1.99,3.1-3.02,1.36-1.04,2.24-1.49,3.71-2.17,1.47-.68,2.3-.91,3.64-1.24,1.34-.32,1.99-.35,3.07-.38,1.08-.02,1.52.17,2.32.25.8.07,1.09.15,1.67.12.58-.04.83.02,1.22-.28.4-.31.73-.71.73-1.24"/>
    <path class="cls-1" d="M141.32,40.29c.1-.52.02-.89-.43-1.49-.46-.59-.84-1.01-1.82-1.48s-1.7-.71-3.11-.86c-1.4-.14-2.26-.13-3.91.16s-2.6.52-4.32,1.28-2.66,1.34-4.29,2.54c-1.64,1.2-2.49,1.95-3.89,3.46-1.4,1.51-2.12,2.41-3.13,4.09-1.01,1.69-1.48,2.64-1.92,4.36-.44,1.72-.49,2.68-.26,4.24.23,1.56.54,2.39,1.39,3.56.85,1.17,1.51,1.69,2.86,2.27,1.36.58,2.24.76,3.9.64s2.63-.35,4.38-1.21c1.75-.86,2.61-1.58,4.34-3.07,1.74-1.48,2.63-2.38,4.34-4.36,1.71-1.97,2.59-3.14,4.21-5.5,1.63-2.37,2.43-3.71,3.9-6.33,1.48-2.62,2.2-4.07,3.47-6.77,1.28-2.69,1.88-4.1,2.92-6.68,1.04-2.58,1.49-3.91,2.29-6.21.8-2.3,1.19-3.4,1.72-5.27.54-1.87.8-2.72.97-4.1.17-1.37.17-1.97-.12-2.75-.29-.79-.69-1.16-1.34-1.19-.65-.03-1.27.11-1.93,1.04-.65.92-.93,1.71-1.34,3.58-.41,1.87-.35,3.16-.7,5.75-.35,2.59-.62,4.24-1.06,7.21-.44,2.98-.73,4.67-1.13,7.65-.4,2.98-.61,4.52-.88,7.25-.26,2.73-.34,4.09-.44,6.39-.11,2.3-.27,3.41-.09,5.14.17,1.73.55,2.47.98,3.51.43,1.04.74,1.41,1.16,1.7.43.29.73.17.95-.26s.15-.84.17-1.89c.02-1.04.04-1.7-.08-3.34-.12-1.64-.45-2.63-.52-4.84-.08-2.21-.05-3.55.14-6.22s.39-4.2.82-7.13c.42-2.94.73-4.63,1.3-7.55.58-2.92.92-4.55,1.58-7.04.66-2.49,1.27-3.62,1.72-5.42.44-1.8.58-2.56.5-3.58-.08-1.01-.5-1.31-.9-1.49-.4-.18-.73.02-1.09.61-.37.59-.44,1.08-.74,2.33-.31,1.25-.38,2.09-.79,3.92-.4,1.84-.58,2.98-1.22,5.26-.65,2.27-1.06,3.59-2.01,6.14-.96,2.54-1.55,3.94-2.79,6.58-1.24,2.64-1.96,4.07-3.42,6.6-1.47,2.53-2.29,3.83-3.92,6.06-1.63,2.23-2.53,3.32-4.24,5.08-1.7,1.76-2.63,2.54-4.3,3.71-1.66,1.17-2.56,1.52-4,2.16-1.44.64-2.09.82-3.21,1.01-1.13.19-1.62.18-2.41-.04-.79-.22-1.1-.42-1.53-1.07-.44-.65-.6-1.13-.65-2.17-.05-1.03.02-1.69.41-2.99.39-1.3.71-2.09,1.55-3.5.84-1.41,1.42-2.26,2.64-3.54,1.22-1.29,2-1.94,3.44-2.89,1.45-.94,2.32-1.27,3.77-1.82,1.45-.55,2.21-.73,3.47-.91,1.26-.19,1.84-.11,2.83,0,.98.11,1.37.38,2.1.56.73.17,1,.28,1.55.33.56.05.79.14,1.22-.1.43-.25.83-.59.93-1.11"/>
    <path class="cls-1" d="M166.98,36.13c-.47.32-.59.73-.9,1.61-.31.89-.42,1.49-.63,2.82-.2,1.33-.25,2.21-.41,3.83-.16,1.61-.23,2.57-.4,4.23-.17,1.67-.38,2.63-.47,4.1-.09,1.47-.09,2.2.02,3.26.11,1.06.21,1.6.54,2.04.34.44.69.48,1.13.15.43-.33.64-.82,1.05-1.79.41-.98.66-1.64,1.02-3.08.37-1.44.49-2.42.79-4.1.3-1.69.5-2.65.71-4.32.21-1.67.34-2.6.32-4.02-.02-1.41-.13-2.09-.4-3.04-.26-.95-.45-1.36-.92-1.7-.47-.34-.98-.31-1.45.01"/>
    <path class="cls-1" d="M174.29,16.22c.58.18,1.04.17,1.06.18.01.01-.64-.03-.98-.11-.34-.08-.58-.02-.73-.29-.14-.26.18-.77,0-1.04-.19-.26-.51-.28-.92-.29-.41-.02-1.07.05-1.12.22-.05.16.35.33.89.6.54.26,1.24.55,1.81.73"/>
    <path class="cls-1" d="M188.1,47.4c.32.5.78.81,1.73,1.02.95.21,1.66.25,3.01.02,1.36-.22,2.28-.48,3.79-1.16,1.51-.68,2.33-1.27,3.77-2.24,1.44-.98,2.17-1.55,3.44-2.64,1.27-1.09,1.91-1.67,2.91-2.8,1-1.13,1.48-1.72,2.09-2.87.61-1.15.85-1.77.96-2.9.11-1.13.05-1.78-.42-2.77-.47-.99-.89-1.54-1.93-2.18-1.03-.64-1.77-.91-3.23-1.03-1.46-.13-2.37-.05-4.06.41-1.69.46-2.63.93-4.36,1.92s-2.67,1.66-4.28,3.02-2.45,2.14-3.76,3.76c-1.31,1.61-1.96,2.51-2.8,4.33-.85,1.81-1.21,2.82-1.43,4.72-.22,1.9-.18,2.95.34,4.77.52,1.82,1.01,2.81,2.26,4.34,1.25,1.53,2.14,2.24,3.99,3.32,1.85,1.09,2.99,1.48,5.27,2.1,2.27.62,3.79.79,6.1,1,2.3.22,3.61.31,5.43.09,1.82-.22,2.97-.68,3.68-1.19.71-.51.62-.97-.13-1.34-.75-.37-1.89-.37-3.63-.5-1.74-.13-2.94.06-5.07-.13s-3.58-.29-5.59-.84c-2-.55-2.95-.97-4.43-1.9-1.48-.92-2.06-1.55-2.99-2.72-.93-1.17-1.28-1.82-1.66-3.14-.37-1.32-.37-2.03-.2-3.46.17-1.44.37-2.25,1.04-3.73.68-1.47,1.2-2.27,2.34-3.64,1.14-1.37,1.91-2.08,3.37-3.19,1.45-1.1,2.38-1.62,3.9-2.35,1.52-.73,2.38-.93,3.7-1.3,1.32-.36,1.95-.44,2.92-.53.96-.09,1.34-.04,1.9.08.55.11.69.19.86.5.17.32.17.52-.01,1.07-.18.55-.34.93-.89,1.69s-.95,1.22-1.88,2.1c-.92.88-1.53,1.39-2.72,2.29-1.19.89-1.92,1.4-3.23,2.18-1.31.78-2.06,1.16-3.34,1.72-1.28.55-2,.68-3.05,1.06-1.04.37-1.47.5-2.19.81-.72.31-1.09.29-1.4.74-.31.44-.45.98-.13,1.48"/>
    <path d="M1.45,74.07c28.28-.4,56.56-.43,84.84-.08s56.55,1.07,84.81,2.16c15.96.62,31.91,1.36,47.86,2.21,1.93.1,1.92-2.9,0-3-28.24-1.52-56.5-2.66-84.77-3.43-28.27-.77-56.55-1.16-84.83-1.18-15.97-.01-31.94.1-47.91.32-1.93.03-1.93,3.03,0,3h0Z"/>
  </g>
</svg>