<?xml version="1.0" encoding="UTF-8"?>
<svg id="Layer_2" data-name="Layer 2" xmlns="http://www.w3.org/2000/svg" viewBox="0 0 194.33 82.32">
  <defs>
    <style>
      .cls-1 {
        stroke: #000;
      }
    </style>
  </defs>
  <g id="Shirt">
    <path class="cls-1" d="M43.46,1.49c-.4-.46-.91-.65-1.95-.82-1.04-.18-1.76-.24-3.24-.06-1.48.18-2.48.37-4.18.96-1.7.59-2.59,1.1-4.33,1.99-1.74.89-2.68,1.38-4.37,2.45-1.7,1.07-2.63,1.66-4.13,2.92-1.49,1.26-2.26,1.95-3.33,3.38-1.07,1.43-1.52,2.23-2.01,3.76-.49,1.53-.62,2.36-.46,3.88.16,1.52.44,2.3,1.25,3.7.8,1.39,1.42,2.08,2.78,3.25,1.37,1.16,2.32,1.58,4.06,2.57,1.75.98,2.76,1.39,4.67,2.36,1.9.97,2.97,1.44,4.86,2.5,1.89,1.06,2.89,1.61,4.58,2.8,1.7,1.19,2.54,1.83,3.9,3.13,1.36,1.3,1.97,2.01,2.89,3.38.92,1.37,1.25,2.08,1.7,3.47s.56,2.08.54,3.49c-.02,1.41-.15,2.12-.65,3.55-.5,1.43-.85,2.19-1.85,3.59s-1.69,2.15-3.17,3.43c-1.48,1.28-2.35,1.93-4.24,2.99-1.89,1.06-3.01,1.56-5.2,2.3-2.19.74-3.44,1.02-5.75,1.4s-3.54.49-5.77.48c-2.23,0-3.4-.11-5.39-.49-2-.38-3-.73-4.63-1.43-1.62-.7-2.29-1.3-3.5-2.05-1.21-.76-1.69-1.15-2.55-1.7-.85-.56-1.19-1.01-1.72-1.09-.53-.08-.89.11-.92.69-.03.58.1,1.25.76,2.23.66.98,1.18,1.73,2.53,2.69,1.36.96,2.35,1.44,4.26,2.12,1.91.68,3.05.95,5.29,1.28,2.23.34,3.47.42,5.88.38,2.41-.03,3.7-.14,6.17-.55,2.47-.4,3.79-.68,6.16-1.44,2.38-.76,3.59-1.27,5.7-2.37,2.11-1.1,3.1-1.73,4.84-3.12,1.74-1.39,2.59-2.18,3.86-3.82,1.27-1.64,1.82-2.59,2.47-4.4.65-1.81.78-2.82.79-4.67,0-1.85-.14-2.81-.74-4.58s-1.11-2.63-2.25-4.24c-1.14-1.6-1.91-2.35-3.46-3.76-1.55-1.42-2.47-2.07-4.29-3.32-1.81-1.26-2.86-1.84-4.79-2.96s-3-1.64-4.84-2.69c-1.84-1.06-2.8-1.55-4.36-2.57-1.56-1.02-2.27-1.59-3.44-2.53-1.17-.94-1.73-1.3-2.41-2.17-.68-.87-.89-1.27-1-2.19-.11-.93,0-1.42.44-2.45.44-1.03.85-1.59,1.76-2.72.91-1.12,1.49-1.8,2.78-2.92,1.3-1.11,2.12-1.7,3.68-2.65,1.55-.94,2.47-1.39,4.1-2.06,1.63-.67,2.51-.85,4.06-1.27,1.55-.41,2.39-.5,3.68-.82,1.3-.32,1.89-.44,2.79-.8.9-.35,1.38-.48,1.71-.97.33-.49.34-1.03-.06-1.49"/>
    <path class="cls-1" d="M65.75,6.87c-.43.41-.54.83-.74,1.95-.2,1.12-.28,1.81-.25,3.62.03,1.81.34,3.02.38,5.45.05,2.42.01,3.85-.15,6.67-.16,2.82-.33,4.43-.65,7.41-.33,2.98-.57,4.6-.98,7.48-.41,2.89-.68,4.37-1.09,6.94-.41,2.56-.68,3.83-.98,5.89-.3,2.05-.55,2.99-.53,4.39.02,1.4.16,1.94.62,2.61.46.67.9.85,1.68.74.77-.11,1.37-.35,2.2-1.27.82-.92,1.15-1.71,1.92-3.35.77-1.64.95-2.84,1.92-4.84.96-2,1.62-3.18,2.89-5.17,1.27-1.99,2.03-3.07,3.46-4.76,1.42-1.69,2.24-2.47,3.66-3.67,1.42-1.21,2.2-1.63,3.45-2.35,1.25-.72,1.82-.99,2.79-1.24.97-.25,1.37-.26,2.06-.02.69.25.94.47,1.39,1.26.45.79.54,1.35.87,2.71.33,1.36.59,2.24.77,4.07.19,1.84.22,3.02.14,5.11-.08,2.08-.26,3.29-.52,5.31-.26,2.02-.68,3.16-.79,4.79-.12,1.63.02,2.33.21,3.38.19,1.05.35,1.36.73,1.87.38.5.77.61,1.15.67.39.07.74-.11.79-.35.04-.23-.44-.7-.56-.82-.12-.12-.11.2-.03.2.07,0,.26.12.4-.2.14-.32.14-.52.31-1.4.17-.88.34-1.44.55-2.99.2-1.55.3-2.72.5-4.78.2-2.06.37-3.32.5-5.53.13-2.21.26-3.44.17-5.51-.1-2.08-.11-3.17-.64-4.86-.53-1.7-1.01-2.49-2-3.61-1-1.12-1.69-1.54-3-1.99-1.31-.45-2.08-.47-3.55-.25-1.48.22-2.3.48-3.84,1.34-1.53.86-2.29,1.54-3.83,2.95-1.53,1.41-2.32,2.3-3.82,4.12-1.51,1.81-2.28,2.93-3.7,4.95-1.42,2.02-2.12,3.2-3.38,5.14-1.26,1.93-2.07,2.91-2.92,4.54-.86,1.62-1.13,2.45-1.36,3.57-.22,1.12.01,1.6.23,2.01.22.41.55.46.87.03.32-.44.54-.9.75-2.2.2-1.29.12-2.24.28-4.28.17-2.03.25-3.32.54-5.89s.55-4.06.94-6.95c.39-2.9.63-4.52,1.01-7.52.38-2.99.58-4.62.9-7.46.32-2.85.47-4.3.7-6.77.23-2.48.47-3.74.46-5.6,0-1.87-.2-2.6-.49-3.73-.29-1.13-.51-1.54-.98-1.9-.47-.36-.97-.32-1.39.09"/>
    <path class="cls-1" d="M110.84,37.45c-.46.35-.58.76-.89,1.75-.31.98-.49,1.65-.65,3.16-.17,1.51-.05,2.54-.19,4.4-.14,1.86-.23,2.97-.5,4.88-.26,1.91-.65,3-.83,4.67-.17,1.66-.13,2.47-.05,3.65.08,1.19.14,1.78.46,2.27.31.49.66.54,1.1.17.44-.37.66-.91,1.11-2.01.45-1.1.78-1.84,1.13-3.48.36-1.64.35-2.8.65-4.75.3-1.94.57-3.05.86-4.96.29-1.91.55-2.98.58-4.57.03-1.6-.16-2.35-.44-3.38-.27-1.04-.46-1.46-.93-1.82-.47-.36-.95-.34-1.42.02"/>
    <path class="cls-1" d="M116.3,12.88c.62-.09,1.11-.28,1.15-.32.04-.05-.6.06-.97.07-.37,0-.6.08-.86-.04-.26-.12-.16-.47-.45-.58-.29-.1-.61-.06-1.01.07-.4.14-1.01.41-.97.59.04.18.56.28,1.18.32.62.04,1.32-.03,1.93-.11"/>
    <path class="cls-1" d="M132,39.61c-.45.33-.54.7-.83,1.59-.29.89-.44,1.51-.64,2.87-.19,1.36-.19,2.28-.31,3.92-.13,1.64-.14,2.61-.32,4.29-.18,1.67-.39,2.6-.58,4.1-.19,1.5-.39,2.27-.36,3.37.04,1.1.12,1.6.52,2.15.41.56.85.74,1.51.63.65-.11,1.14-.34,1.78-1.16.64-.82.92-1.49,1.4-2.93.48-1.45.45-2.49.98-4.31.53-1.82.87-2.9,1.67-4.78.8-1.88,1.31-2.9,2.35-4.63,1.03-1.73,1.63-2.58,2.79-4,1.16-1.42,1.82-2.03,3.02-3.08,1.2-1.06,1.78-1.51,2.98-2.2,1.2-.68,1.81-.89,3.01-1.22,1.21-.33,1.9-.29,3.04-.42,1.13-.13,1.72-.06,2.65-.22.92-.15,1.54-.19,1.97-.55.43-.37.53-.8.19-1.28-.35-.48-.91-.81-1.93-1.12-1.01-.31-1.77-.46-3.14-.41-1.37.06-2.25.23-3.74.7-1.49.46-2.26.77-3.71,1.61-1.46.84-2.21,1.35-3.56,2.6-1.36,1.24-1.99,2.02-3.23,3.62-1.24,1.6-1.85,2.52-2.98,4.36-1.13,1.84-1.66,2.9-2.65,4.84-1,1.93-1.48,3.01-2.32,4.81-.85,1.8-1.43,2.72-1.9,4.21-.47,1.5-.53,2.27-.46,3.28.07,1.01.38,1.41.8,1.76.42.35.83.35,1.3,0,.47-.35.68-.75,1.04-1.75.36-1.01.46-1.78.77-3.27.31-1.48.48-2.44.79-4.16.31-1.72.55-2.72.74-4.43.2-1.71.28-2.68.25-4.12-.04-1.45-.15-2.14-.44-3.1-.29-.96-.52-1.36-1.01-1.68-.49-.32-.97-.26-1.42.08"/>
    <path class="cls-1" d="M178.71,4.08c-.43.3-.5.56-.79,1.43-.28.88-.53,1.41-.62,2.95-.1,1.54.16,2.55.13,4.74-.03,2.18-.07,3.53-.28,6.2-.2,2.66-.38,4.22-.73,7.15-.34,2.93-.59,4.52-.98,7.48s-.62,4.51-.99,7.3c-.37,2.79-.54,4.19-.85,6.64-.31,2.45-.57,3.67-.71,5.6-.14,1.93-.11,2.78,0,4.04.13,1.27.28,1.82.61,2.28.32.47.65.47,1.03.05.37-.43.55-.96.81-2.19.26-1.23.35-2.06.49-3.97.14-1.91.04-3.14.2-5.57.16-2.44.31-3.83.62-6.61.31-2.78.54-4.33.95-7.28.41-2.95.67-4.54,1.11-7.47.44-2.92.67-4.48,1.08-7.15.41-2.68.65-4.01.98-6.22.34-2.21.67-3.25.71-4.84.04-1.6-.23-2.21-.52-3.14-.29-.92-.47-1.2-.92-1.49-.45-.28-.91-.23-1.33.07"/>
    <path class="cls-1" d="M167.25,38.76c.34.43.7.53,1.6.74.91.22,1.5.32,2.92.34,1.42,0,2.33-.17,4.15-.29,1.82-.12,2.91-.26,4.95-.32,2.04-.07,3.33.04,5.26,0,1.93-.04,2.93,0,4.38-.19,1.45-.2,2.29-.39,2.87-.8s.6-.8.04-1.24c-.56-.44-1.39-.71-2.85-.97-1.45-.25-2.48-.25-4.42-.31-1.94-.05-3.23.06-5.3.02-2.07-.04-3.16-.17-5.03-.2-1.86-.03-2.84-.11-4.28.05-1.44.16-2.05.4-2.93.76-.88.35-1.21.54-1.48,1.02-.28.49-.22.97.13,1.4"/>
    <path d="M1.45,82.32l72.33-.11c24.11-.04,48.22-.07,72.33-.11,13.63-.02,27.27-.04,40.9-.06,1.93,0,1.93-3,0-3-24.11.04-48.22.07-72.33.11l-72.33.11c-13.63.02-27.27.04-40.9.06-1.93,0-1.93,3,0,3h0Z"/>
  </g>
</svg>