<svg xmlns="http://www.w3.org/2000/svg" id="canvas" viewBox="186.783 299.809 1074.223 172.792"><path d="M 259.95,304.46 C 259.28 303.69, 258.43 303.38, 256.70 303.09 C 254.97 302.79, 253.77 302.69, 251.30 302.99 C 248.83 303.29, 247.17 303.60, 244.34 304.59 C 241.51 305.57, 240.03 306.43, 237.13 307.91 C 234.23 309.39, 232.67 310.21, 229.84 312.00 C 227.00 313.78, 225.45 314.76, 222.96 316.86 C 220.48 318.96, 219.19 320.11, 217.41 322.50 C 215.63 324.88, 214.88 326.22, 214.06 328.77 C 213.24 331.32, 213.03 332.71, 213.29 335.24 C 213.56 337.77, 214.03 339.08, 215.38 341.40 C 216.72 343.71, 217.74 344.87, 220.02 346.81 C 222.31 348.75, 223.89 349.44, 226.79 351.09 C 229.70 352.73, 231.39 353.41, 234.57 355.03 C 237.74 356.65, 239.52 357.43, 242.67 359.20 C 245.82 360.97, 247.48 361.89, 250.31 363.87 C 253.14 365.85, 254.54 366.92, 256.81 369.09 C 259.07 371.26, 260.10 372.44, 261.63 374.72 C 263.16 377.01, 263.71 378.18, 264.46 380.50 C 265.21 382.82, 265.40 383.97, 265.36 386.32 C 265.32 388.67, 265.11 389.85, 264.27 392.24 C 263.43 394.62, 262.86 395.89, 261.18 398.23 C 259.50 400.57, 258.36 401.81, 255.89 403.95 C 253.42 406.09, 251.97 407.16, 248.82 408.93 C 245.67 410.69, 243.81 411.53, 240.16 412.77 C 236.51 414.00, 234.42 414.47, 230.58 415.10 C 226.74 415.73, 224.68 415.91, 220.96 415.90 C 217.24 415.90, 215.30 415.72, 211.97 415.08 C 208.63 414.44, 206.97 413.86, 204.26 412.70 C 201.56 411.54, 200.45 410.53, 198.43 409.28 C 196.42 408.02, 195.61 407.37, 194.18 406.44 C 192.76 405.51, 192.20 404.76, 191.32 404.63 C 190.44 404.50, 189.84 404.81, 189.79 405.78 C 189.74 406.75, 189.96 407.86, 191.06 409.50 C 192.16 411.14, 193.02 412.38, 195.28 413.99 C 197.55 415.59, 199.20 416.39, 202.38 417.53 C 205.56 418.67, 207.47 419.12, 211.19 419.67 C 214.91 420.23, 216.97 420.37, 220.99 420.31 C 225.01 420.26, 227.16 420.07, 231.28 419.40 C 235.39 418.74, 237.60 418.27, 241.55 417.00 C 245.51 415.73, 247.53 414.88, 251.05 413.05 C 254.56 411.22, 256.22 410.16, 259.12 407.85 C 262.02 405.53, 263.44 404.22, 265.55 401.49 C 267.66 398.75, 268.58 397.18, 269.67 394.16 C 270.76 391.14, 270.97 389.46, 270.99 386.38 C 271.00 383.30, 270.75 381.69, 269.75 378.75 C 268.75 375.81, 267.90 374.36, 266.00 371.69 C 264.10 369.02, 262.82 367.78, 260.24 365.42 C 257.66 363.06, 256.12 361.97, 253.09 359.88 C 250.07 357.78, 248.32 356.82, 245.11 354.94 C 241.90 353.06, 240.11 352.21, 237.04 350.46 C 233.98 348.70, 232.38 347.87, 229.78 346.17 C 227.18 344.47, 226.00 343.52, 224.05 341.95 C 222.10 340.38, 221.17 339.79, 220.03 338.33 C 218.90 336.88, 218.55 336.22, 218.36 334.68 C 218.17 333.13, 218.36 332.32, 219.09 330.60 C 219.82 328.88, 220.51 327.95, 222.03 326.07 C 223.55 324.20, 224.52 323.07, 226.67 321.21 C 228.83 319.36, 230.21 318.37, 232.81 316.80 C 235.40 315.23, 236.92 314.48, 239.64 313.37 C 242.36 312.26, 243.83 311.96, 246.41 311.26 C 248.99 310.57, 250.39 310.43, 252.55 309.89 C 254.71 309.35, 255.70 309.15, 257.20 308.56 C 258.70 307.97, 259.50 307.76, 260.05 306.94 C 260.60 306.12, 260.62 305.23, 259.95 304.46" style="stroke: black; fill: black;"/><path d="M 297.10,313.43 C 296.39 314.11, 296.20 314.82, 295.87 316.68 C 295.54 318.54, 295.41 319.69, 295.46 322.72 C 295.51 325.74, 296.02 327.76, 296.10 331.81 C 296.18 335.85, 296.12 338.23, 295.85 342.93 C 295.59 347.63, 295.30 350.32, 294.76 355.28 C 294.21 360.25, 293.81 362.95, 293.12 367.75 C 292.43 372.56, 291.99 375.04, 291.30 379.32 C 290.61 383.59, 290.17 385.70, 289.66 389.13 C 289.16 392.55, 288.75 394.11, 288.78 396.44 C 288.81 398.77, 289.05 399.67, 289.82 400.79 C 290.58 401.90, 291.32 402.20, 292.62 402.02 C 293.91 401.84, 294.90 401.43, 296.28 399.90 C 297.65 398.36, 298.20 397.05, 299.48 394.32 C 300.76 391.59, 301.07 389.58, 302.68 386.25 C 304.28 382.91, 305.38 380.95, 307.50 377.64 C 309.61 374.33, 310.88 372.52, 313.26 369.71 C 315.63 366.90, 316.99 365.60, 319.36 363.59 C 321.73 361.58, 323.03 360.87, 325.11 359.67 C 327.19 358.47, 328.14 358.02, 329.76 357.60 C 331.38 357.18, 332.05 357.16, 333.20 357.57 C 334.35 357.99, 334.76 358.35, 335.51 359.67 C 336.26 360.99, 336.41 361.92, 336.96 364.19 C 337.51 366.45, 337.94 367.92, 338.24 370.98 C 338.55 374.05, 338.61 376.02, 338.48 379.50 C 338.35 382.97, 338.05 384.99, 337.61 388.35 C 337.17 391.72, 336.48 393.61, 336.29 396.33 C 336.09 399.05, 336.33 400.21, 336.64 401.96 C 336.95 403.71, 337.23 404.23, 337.85 405.08 C 338.48 405.92, 339.13 406.09, 339.77 406.19 C 340.42 406.30, 341.00 406.00, 341.08 405.61 C 341.15 405.22, 340.34 404.45, 340.15 404.25 C 339.95 404.05, 339.97 404.59, 340.10 404.59 C 340.22 404.59, 340.54 404.79, 340.77 404.25 C 341.01 403.72, 341.01 403.39, 341.29 401.92 C 341.58 400.46, 341.85 399.52, 342.20 396.93 C 342.54 394.34, 342.70 392.40, 343.03 388.97 C 343.37 385.53, 343.65 383.44, 343.87 379.76 C 344.09 376.08, 344.31 374.02, 344.15 370.57 C 343.99 367.11, 343.97 365.29, 343.09 362.47 C 342.21 359.64, 341.41 358.32, 339.75 356.46 C 338.08 354.59, 336.93 353.89, 334.75 353.14 C 332.56 352.39, 331.29 352.36, 328.83 352.72 C 326.37 353.08, 324.99 353.52, 322.43 354.95 C 319.88 356.38, 318.61 357.51, 316.05 359.86 C 313.50 362.21, 312.18 363.69, 309.68 366.72 C 307.17 369.74, 305.88 371.61, 303.52 374.97 C 301.16 378.34, 299.98 380.31, 297.88 383.54 C 295.78 386.76, 294.43 388.39, 293.01 391.10 C 291.58 393.80, 291.12 395.19, 290.74 397.05 C 290.37 398.91, 290.76 399.72, 291.12 400.40 C 291.49 401.08, 292.03 401.17, 292.57 400.45 C 293.11 399.72, 293.47 398.95, 293.82 396.79 C 294.16 394.64, 294.02 393.05, 294.29 389.66 C 294.57 386.27, 294.70 384.13, 295.19 379.85 C 295.68 375.57, 296.10 373.08, 296.75 368.26 C 297.40 363.43, 297.80 360.72, 298.44 355.72 C 299.07 350.73, 299.41 348.02, 299.94 343.28 C 300.48 338.53, 300.73 336.12, 301.11 332.00 C 301.50 327.87, 301.89 325.77, 301.88 322.66 C 301.87 319.55, 301.55 318.33, 301.06 316.45 C 300.57 314.57, 300.21 313.89, 299.42 313.28 C 298.63 312.68, 297.81 312.75, 297.10 313.43" style="stroke: black; fill: black;"/><path d="M 372.26,364.40 C 371.49 364.99, 371.29 365.67, 370.78 367.31 C 370.26 368.94, 369.97 370.06, 369.69 372.58 C 369.41 375.10, 369.61 376.82, 369.38 379.91 C 369.15 383.01, 368.99 384.86, 368.54 388.04 C 368.10 391.22, 367.45 393.04, 367.15 395.82 C 366.86 398.59, 366.93 399.94, 367.07 401.91 C 367.20 403.89, 367.31 404.88, 367.83 405.69 C 368.35 406.51, 368.93 406.59, 369.67 405.98 C 370.41 405.36, 370.77 404.46, 371.52 402.63 C 372.27 400.80, 372.82 399.57, 373.41 396.83 C 374.01 394.09, 374.00 392.16, 374.50 388.92 C 375.00 385.69, 375.45 383.83, 375.93 380.66 C 376.41 377.48, 376.85 375.69, 376.90 373.04 C 376.95 370.38, 376.63 369.13, 376.17 367.40 C 375.72 365.67, 375.41 364.97, 374.62 364.37 C 373.84 363.77, 373.03 363.81, 372.26 364.40" style="stroke: black; fill: black;"/><path d="M 381.35,323.45 C 382.38 323.30, 383.20 322.99, 383.26 322.91 C 383.32 322.82, 382.26 323.01, 381.65 323.02 C 381.04 323.03, 380.65 323.16, 380.21 322.96 C 379.77 322.76, 379.94 322.17, 379.46 322.00 C 378.97 321.83, 378.44 321.90, 377.78 322.12 C 377.12 322.35, 376.09 322.81, 376.16 323.11 C 376.23 323.41, 377.10 323.57, 378.13 323.64 C 379.17 323.71, 380.33 323.59, 381.35 323.45" style="stroke: black; fill: black;"/><path d="M 407.52,368.00 C 406.77 368.55, 406.62 369.16, 406.13 370.65 C 405.65 372.14, 405.39 373.17, 405.07 375.44 C 404.76 377.70, 404.76 379.24, 404.55 381.97 C 404.33 384.71, 404.31 386.32, 404.01 389.12 C 403.71 391.91, 403.36 393.46, 403.05 395.95 C 402.74 398.45, 402.40 399.73, 402.45 401.57 C 402.51 403.41, 402.65 404.24, 403.32 405.16 C 404.00 406.09, 404.73 406.39, 405.83 406.21 C 406.92 406.03, 407.73 405.64, 408.79 404.28 C 409.85 402.91, 410.33 401.80, 411.12 399.39 C 411.92 396.98, 411.87 395.24, 412.76 392.21 C 413.64 389.18, 414.21 387.38, 415.55 384.24 C 416.89 381.10, 417.74 379.40, 419.46 376.53 C 421.17 373.65, 422.17 372.23, 424.11 369.87 C 426.04 367.51, 427.14 366.49, 429.14 364.73 C 431.14 362.97, 432.11 362.21, 434.11 361.07 C 436.11 359.93, 437.12 359.59, 439.13 359.04 C 441.15 358.49, 442.30 358.55, 444.20 358.34 C 446.09 358.13, 447.07 358.24, 448.62 357.98 C 450.16 357.73, 451.18 357.67, 451.90 357.06 C 452.62 356.45, 452.79 355.72, 452.21 354.93 C 451.63 354.13, 450.69 353.58, 449.00 353.07 C 447.31 352.56, 446.05 352.30, 443.76 352.39 C 441.47 352.49, 440.01 352.78, 437.53 353.55 C 435.04 354.32, 433.76 354.84, 431.34 356.24 C 428.91 357.64, 427.66 358.49, 425.40 360.57 C 423.13 362.64, 422.08 363.94, 420.01 366.60 C 417.94 369.26, 416.93 370.80, 415.05 373.86 C 413.17 376.93, 412.28 378.70, 410.63 381.92 C 408.97 385.13, 408.17 386.93, 406.76 389.94 C 405.35 392.94, 404.37 394.47, 403.59 396.96 C 402.80 399.46, 402.71 400.75, 402.82 402.42 C 402.94 404.10, 403.46 404.77, 404.16 405.36 C 404.86 405.95, 405.55 405.95, 406.33 405.37 C 407.11 404.79, 407.46 404.12, 408.06 402.45 C 408.66 400.77, 408.82 399.48, 409.34 397.00 C 409.86 394.53, 410.14 392.93, 410.65 390.07 C 411.16 387.20, 411.56 385.54, 411.89 382.69 C 412.22 379.84, 412.36 378.23, 412.30 375.83 C 412.23 373.42, 412.05 372.26, 411.57 370.67 C 411.09 369.07, 410.70 368.40, 409.89 367.87 C 409.08 367.34, 408.27 367.44, 407.52 368.00" style="stroke: black; fill: black;"/><path d="M 485.37,308.78 C 484.66 309.28, 484.53 309.71, 484.06 311.17 C 483.59 312.63, 483.18 313.52, 483.02 316.08 C 482.85 318.64, 483.28 320.33, 483.23 323.98 C 483.18 327.62, 483.11 329.86, 482.77 334.31 C 482.44 338.75, 482.13 341.35, 481.55 346.22 C 480.98 351.10, 480.57 353.76, 479.91 358.69 C 479.25 363.62, 478.87 366.21, 478.26 370.86 C 477.64 375.51, 477.36 377.84, 476.84 381.92 C 476.32 386.00, 475.89 388.04, 475.66 391.26 C 475.43 394.47, 475.47 395.90, 475.67 398.00 C 475.88 400.11, 476.14 401.03, 476.69 401.80 C 477.23 402.58, 477.78 402.59, 478.40 401.88 C 479.01 401.16, 479.32 400.28, 479.75 398.23 C 480.19 396.18, 480.33 394.80, 480.56 391.61 C 480.79 388.43, 480.63 386.38, 480.90 382.32 C 481.17 378.26, 481.41 375.94, 481.93 371.31 C 482.45 366.68, 482.83 364.10, 483.51 359.18 C 484.20 354.27, 484.63 351.61, 485.36 346.73 C 486.09 341.86, 486.47 339.27, 487.16 334.81 C 487.84 330.35, 488.24 328.13, 488.80 324.45 C 489.37 320.76, 489.92 319.04, 489.99 316.38 C 490.05 313.72, 489.60 312.69, 489.12 311.15 C 488.64 309.61, 488.34 309.15, 487.59 308.67 C 486.84 308.20, 486.07 308.28, 485.37 308.78" style="stroke: black; fill: black;"/><path d="M 466.27,366.57 C 466.84 367.28, 467.44 367.46, 468.94 367.81 C 470.45 368.17, 471.44 368.35, 473.80 368.37 C 476.16 368.38, 477.69 368.08, 480.72 367.88 C 483.76 367.68, 485.57 367.45, 488.97 367.34 C 492.37 367.23, 494.52 367.40, 497.73 367.33 C 500.94 367.26, 502.62 367.34, 505.03 367.01 C 507.45 366.68, 508.85 366.36, 509.82 365.68 C 510.79 365.00, 510.82 364.35, 509.88 363.61 C 508.94 362.87, 507.56 362.42, 505.13 361.99 C 502.71 361.57, 501.00 361.58, 497.76 361.48 C 494.52 361.39, 492.37 361.58, 488.93 361.52 C 485.48 361.45, 483.66 361.23, 480.55 361.18 C 477.45 361.13, 475.82 361.00, 473.41 361.27 C 471.01 361.54, 470.00 361.94, 468.53 362.54 C 467.06 363.13, 466.51 363.44, 466.06 364.24 C 465.60 365.05, 465.69 365.86, 466.27 366.57" style="stroke: black; fill: black;"/><path d="M 618.48,309.42 C 617.83 310.03, 617.84 310.53, 617.50 312.11 C 617.16 313.69, 616.77 314.62, 616.77 317.33 C 616.77 320.05, 617.45 321.83, 617.50 325.70 C 617.56 329.58, 617.42 331.93, 617.05 336.70 C 616.68 341.46, 616.32 344.24, 615.65 349.53 C 614.99 354.83, 614.53 357.78, 613.74 363.17 C 612.94 368.55, 612.47 371.39, 611.67 376.44 C 610.87 381.49, 610.44 384.07, 609.73 388.42 C 609.02 392.77, 608.40 394.95, 608.11 398.19 C 607.83 401.42, 608.04 402.70, 608.30 404.62 C 608.56 406.54, 608.90 407.15, 609.41 407.78 C 609.93 408.41, 610.37 408.37, 610.88 407.77 C 611.38 407.16, 611.53 406.57, 611.92 404.74 C 612.32 402.92, 612.51 401.80, 612.83 398.63 C 613.15 395.47, 613.08 393.27, 613.52 388.93 C 613.97 384.59, 614.35 382.00, 615.05 376.94 C 615.75 371.89, 616.22 369.05, 617.04 363.66 C 617.86 358.28, 618.35 355.32, 619.16 350.02 C 619.98 344.72, 620.41 341.96, 621.12 337.15 C 621.83 332.35, 622.18 329.98, 622.70 326.01 C 623.21 322.03, 623.73 320.16, 623.70 317.30 C 623.67 314.44, 623.15 313.36, 622.55 311.71 C 621.96 310.06, 621.53 309.52, 620.72 309.06 C 619.90 308.61, 619.12 308.82, 618.48 309.42" style="stroke: black; fill: black;"/><path d="M 645.04,322.29 C 644.39 322.79, 644.32 323.11, 643.94 324.49 C 643.55 325.87, 643.18 326.69, 643.10 329.19 C 643.02 331.70, 643.46 333.37, 643.53 337.00 C 643.61 340.63, 643.63 342.94, 643.46 347.35 C 643.29 351.77, 643.07 354.34, 642.69 359.06 C 642.32 363.79, 642.05 366.39, 641.59 370.98 C 641.13 375.58, 640.84 377.97, 640.39 382.02 C 639.94 386.08, 639.63 388.01, 639.34 391.26 C 639.06 394.50, 638.94 396.06, 638.96 398.26 C 638.98 400.45, 639.14 401.13, 639.46 402.24 C 639.79 403.36, 640.22 403.50, 640.58 403.83 C 640.95 404.16, 641.11 403.87, 641.27 403.90 C 641.43 403.92, 641.22 403.98, 641.41 403.97 C 641.59 403.97, 641.81 404.20, 642.19 403.87 C 642.56 403.53, 642.93 403.39, 643.28 402.30 C 643.64 401.22, 643.79 400.60, 643.98 398.45 C 644.17 396.30, 644.13 394.77, 644.24 391.56 C 644.35 388.34, 644.28 386.42, 644.53 382.38 C 644.77 378.34, 645.04 375.95, 645.47 371.36 C 645.89 366.77, 646.16 364.16, 646.66 359.43 C 647.16 354.70, 647.45 352.13, 647.96 347.70 C 648.47 343.27, 648.79 340.98, 649.22 337.28 C 649.66 333.59, 650.19 331.84, 650.12 329.22 C 650.06 326.59, 649.49 325.58, 648.90 324.14 C 648.31 322.69, 647.94 322.35, 647.17 321.98 C 646.40 321.61, 645.69 321.79, 645.04 322.29" style="stroke: black; fill: black;"/><path d="M 605.50,369.89 C 606.06 370.59, 606.56 370.77, 608.12 371.14 C 609.69 371.51, 610.74 371.84, 613.34 371.74 C 615.94 371.64, 617.65 371.08, 621.11 370.66 C 624.57 370.23, 626.69 369.96, 630.64 369.61 C 634.59 369.26, 637.12 369.17, 640.87 368.91 C 644.61 368.65, 646.58 368.81, 649.36 368.31 C 652.14 367.81, 653.71 367.20, 654.76 366.41 C 655.81 365.62, 655.75 364.97, 654.60 364.35 C 653.45 363.73, 651.82 363.41, 649.01 363.31 C 646.19 363.21, 644.27 363.60, 640.53 363.83 C 636.79 364.07, 634.27 364.33, 630.31 364.50 C 626.35 364.67, 624.22 364.65, 620.73 364.68 C 617.23 364.70, 615.44 364.36, 612.84 364.62 C 610.24 364.89, 609.23 365.39, 607.73 366.00 C 606.22 366.60, 605.77 366.88, 605.32 367.66 C 604.88 368.43, 604.94 369.19, 605.50 369.89" style="stroke: black; fill: black;"/><path d="M 706.07,363.44 C 705.99 362.58, 705.68 362.10, 704.79 361.39 C 703.90 360.69, 703.23 360.25, 701.62 359.91 C 700.01 359.56, 698.88 359.46, 696.75 359.67 C 694.62 359.88, 693.41 360.14, 690.98 360.96 C 688.55 361.78, 687.13 362.26, 684.60 363.78 C 682.07 365.29, 680.68 366.32, 678.34 368.53 C 675.99 370.75, 674.78 372.13, 672.86 374.87 C 670.94 377.60, 669.97 379.17, 668.72 382.19 C 667.48 385.22, 666.89 386.94, 666.64 389.99 C 666.38 393.04, 666.56 394.76, 667.46 397.45 C 668.37 400.14, 669.21 401.52, 671.16 403.46 C 673.11 405.40, 674.46 406.26, 677.22 407.15 C 679.98 408.03, 681.77 408.26, 684.96 407.88 C 688.15 407.51, 689.95 406.75, 693.18 405.27 C 696.41 403.79, 698.08 402.70, 701.11 400.47 C 704.14 398.25, 705.70 396.85, 708.32 394.13 C 710.94 391.41, 712.23 389.81, 714.21 386.86 C 716.19 383.92, 717.19 382.33, 718.22 379.39 C 719.25 376.46, 719.40 374.83, 719.36 372.19 C 719.32 369.55, 719.00 368.25, 718.01 366.18 C 717.02 364.11, 716.13 363.14, 714.43 361.84 C 712.74 360.54, 711.47 360.08, 709.53 359.69 C 707.60 359.29, 706.32 359.42, 704.74 359.88 C 703.16 360.33, 702.18 361.03, 701.64 361.94 C 701.10 362.85, 701.34 363.72, 702.05 364.42 C 702.76 365.12, 703.87 365.22, 705.18 365.44 C 706.48 365.67, 707.31 365.42, 708.58 365.55 C 709.85 365.68, 710.54 365.55, 711.53 366.08 C 712.53 366.62, 713.03 367.04, 713.55 368.24 C 714.06 369.43, 714.26 370.22, 714.12 372.07 C 713.98 373.93, 713.71 375.10, 712.86 377.50 C 712.00 379.89, 711.49 381.42, 709.86 384.05 C 708.23 386.69, 707.06 388.21, 704.71 390.66 C 702.36 393.10, 700.86 394.38, 698.11 396.28 C 695.36 398.17, 693.76 399.04, 690.98 400.14 C 688.20 401.25, 686.66 401.48, 684.22 401.80 C 681.77 402.11, 680.63 402.14, 678.76 401.72 C 676.89 401.29, 676.10 400.85, 674.88 399.67 C 673.66 398.50, 673.15 397.66, 672.67 395.84 C 672.18 394.02, 672.14 392.86, 672.43 390.58 C 672.73 388.30, 673.09 386.90, 674.12 384.44 C 675.16 381.98, 675.94 380.55, 677.61 378.29 C 679.28 376.04, 680.43 374.91, 682.49 373.16 C 684.56 371.40, 685.81 370.70, 687.93 369.54 C 690.04 368.37, 691.18 367.92, 693.07 367.33 C 694.96 366.73, 695.83 366.69, 697.38 366.57 C 698.93 366.44, 699.63 366.70, 700.82 366.69 C 702.00 366.68, 702.44 366.69, 703.30 366.49 C 704.17 366.30, 704.60 366.32, 705.15 365.71 C 705.71 365.10, 706.14 364.31, 706.07 363.44" style="stroke: black; fill: black;"/><path d="M 764.45,369.89 C 764.46 369.00, 764.21 368.42, 763.29 367.55 C 762.37 366.68, 761.62 366.10, 759.83 365.55 C 758.04 365.01, 756.79 364.77, 754.35 364.84 C 751.92 364.90, 750.44 365.08, 747.67 365.88 C 744.90 366.69, 743.33 367.32, 740.50 368.85 C 737.67 370.38, 736.12 371.39, 733.52 373.53 C 730.91 375.67, 729.53 376.97, 727.48 379.56 C 725.43 382.16, 724.39 383.65, 723.27 386.52 C 722.14 389.39, 721.78 391.06, 721.84 393.92 C 721.90 396.77, 722.26 398.39, 723.57 400.81 C 724.88 403.22, 726.01 404.43, 728.40 406.00 C 730.79 407.57, 732.40 408.22, 735.52 408.66 C 738.63 409.09, 740.53 408.85, 743.97 408.17 C 747.41 407.50, 749.30 406.82, 752.70 405.30 C 756.10 403.78, 757.89 402.72, 760.97 400.58 C 764.05 398.44, 765.60 397.14, 768.10 394.61 C 770.59 392.07, 771.83 390.67, 773.43 387.91 C 775.04 385.16, 775.63 383.59, 776.12 380.84 C 776.61 378.09, 776.52 376.60, 775.89 374.16 C 775.27 371.72, 774.57 370.48, 772.98 368.63 C 771.39 366.78, 770.09 365.90, 767.96 364.90 C 765.83 363.90, 764.33 363.65, 762.35 363.63 C 760.37 363.62, 758.96 364.08, 758.05 364.82 C 757.15 365.56, 757.17 366.44, 757.82 367.32 C 758.47 368.20, 759.76 368.57, 761.28 369.23 C 762.81 369.88, 763.89 369.96, 765.45 370.59 C 767.01 371.22, 767.98 371.40, 769.08 372.36 C 770.19 373.32, 770.62 373.92, 770.97 375.40 C 771.33 376.88, 771.34 377.81, 770.87 379.76 C 770.39 381.70, 769.90 382.85, 768.60 385.11 C 767.30 387.36, 766.46 388.77, 764.36 391.03 C 762.26 393.29, 760.83 394.53, 758.09 396.41 C 755.34 398.30, 753.65 399.23, 750.63 400.46 C 747.62 401.69, 745.86 402.14, 743.00 402.56 C 740.13 402.98, 738.64 402.84, 736.29 402.58 C 733.95 402.31, 732.90 402.10, 731.29 401.24 C 729.67 400.38, 729.02 399.73, 728.22 398.28 C 727.42 396.82, 727.19 395.85, 727.29 393.95 C 727.38 392.05, 727.72 390.91, 728.67 388.76 C 729.62 386.60, 730.32 385.30, 732.02 383.18 C 733.73 381.05, 734.92 379.87, 737.18 378.14 C 739.45 376.41, 740.91 375.65, 743.36 374.52 C 745.81 373.38, 747.19 373.00, 749.43 372.46 C 751.67 371.92, 752.74 371.87, 754.54 371.82 C 756.34 371.78, 757.08 372.10, 758.41 372.23 C 759.74 372.35, 760.22 372.48, 761.19 372.43 C 762.15 372.37, 762.58 372.47, 763.23 371.96 C 763.89 371.45, 764.44 370.77, 764.45 369.89" style="stroke: black; fill: black;"/><path d="M 831.82,375.14 C 831.98 374.28, 831.85 373.65, 831.10 372.66 C 830.34 371.67, 829.70 370.97, 828.06 370.19 C 826.42 369.41, 825.22 369.00, 822.88 368.76 C 820.54 368.53, 819.11 368.55, 816.37 369.03 C 813.63 369.51, 812.04 369.89, 809.17 371.16 C 806.30 372.43, 804.74 373.39, 802.02 375.39 C 799.29 377.39, 797.87 378.64, 795.53 381.16 C 793.19 383.68, 791.99 385.17, 790.31 387.98 C 788.62 390.80, 787.84 392.38, 787.11 395.24 C 786.38 398.11, 786.30 399.71, 786.67 402.31 C 787.05 404.91, 787.57 406.30, 788.99 408.24 C 790.40 410.19, 791.51 411.06, 793.76 412.03 C 796.02 413.00, 797.50 413.29, 800.26 413.10 C 803.02 412.91, 804.65 412.51, 807.56 411.08 C 810.47 409.65, 811.91 408.44, 814.80 405.96 C 817.70 403.49, 819.19 401.99, 822.04 398.70 C 824.89 395.41, 826.35 393.47, 829.05 389.53 C 831.76 385.58, 833.10 383.34, 835.55 378.98 C 838.01 374.61, 839.21 372.19, 841.33 367.70 C 843.46 363.22, 844.47 360.86, 846.20 356.56 C 847.94 352.26, 848.68 350.04, 850.01 346.21 C 851.35 342.38, 851.99 340.54, 852.88 337.42 C 853.78 334.30, 854.21 332.88, 854.49 330.59 C 854.77 328.31, 854.77 327.31, 854.29 326.00 C 853.80 324.68, 853.14 324.06, 852.05 324.01 C 850.96 323.96, 849.93 324.20, 848.84 325.74 C 847.75 327.28, 847.29 328.59, 846.61 331.71 C 845.93 334.82, 846.03 336.98, 845.44 341.30 C 844.86 345.62, 844.41 348.36, 843.68 353.31 C 842.95 358.27, 842.47 361.10, 841.80 366.06 C 841.13 371.03, 840.78 373.60, 840.34 378.15 C 839.90 382.70, 839.78 384.96, 839.60 388.80 C 839.42 392.64, 839.15 394.48, 839.45 397.36 C 839.74 400.24, 840.37 401.47, 841.09 403.21 C 841.81 404.94, 842.33 405.56, 843.03 406.04 C 843.74 406.52, 844.24 406.32, 844.61 405.60 C 844.98 404.88, 844.86 404.20, 844.89 402.45 C 844.92 400.71, 844.95 399.61, 844.75 396.89 C 844.55 394.16, 844.00 392.51, 843.88 388.83 C 843.75 385.15, 843.80 382.92, 844.12 378.47 C 844.44 374.02, 844.77 371.47, 845.48 366.58 C 846.18 361.68, 846.69 358.86, 847.65 354.00 C 848.61 349.13, 849.19 346.42, 850.29 342.26 C 851.39 338.11, 852.41 336.22, 853.15 333.22 C 853.89 330.22, 854.12 328.95, 853.99 327.26 C 853.85 325.57, 853.15 325.07, 852.49 324.78 C 851.82 324.48, 851.28 324.82, 850.67 325.80 C 850.05 326.78, 849.94 327.60, 849.43 329.68 C 848.92 331.76, 848.79 333.16, 848.12 336.21 C 847.45 339.27, 847.16 341.17, 846.08 344.97 C 845.00 348.76, 844.32 350.96, 842.73 355.20 C 841.13 359.44, 840.15 361.77, 838.08 366.16 C 836.02 370.56, 834.82 372.94, 832.38 377.16 C 829.93 381.38, 828.57 383.55, 825.85 387.26 C 823.14 390.98, 821.63 392.80, 818.79 395.73 C 815.95 398.66, 814.40 399.96, 811.63 401.92 C 808.87 403.87, 807.37 404.46, 804.96 405.52 C 802.56 406.58, 801.48 406.88, 799.61 407.21 C 797.73 407.53, 796.91 407.51, 795.60 407.14 C 794.29 406.77, 793.77 406.44, 793.05 405.36 C 792.32 404.28, 792.05 403.47, 791.97 401.75 C 791.89 400.04, 792.00 398.93, 792.66 396.76 C 793.31 394.60, 793.84 393.27, 795.24 390.92 C 796.64 388.57, 797.61 387.16, 799.64 385.02 C 801.67 382.87, 802.97 381.78, 805.37 380.21 C 807.78 378.64, 809.24 378.09, 811.65 377.17 C 814.07 376.26, 815.34 375.95, 817.44 375.65 C 819.54 375.34, 820.51 375.47, 822.15 375.66 C 823.79 375.85, 824.43 376.30, 825.65 376.60 C 826.86 376.89, 827.31 377.07, 828.23 377.15 C 829.16 377.23, 829.55 377.39, 830.27 376.99 C 830.99 376.58, 831.65 376.01, 831.82 375.14" style="stroke: black; fill: black;"/><path d="M 874.58,368.20 C 873.80 368.74, 873.59 369.42, 873.08 370.89 C 872.57 372.37, 872.38 373.38, 872.03 375.59 C 871.69 377.81, 871.62 379.28, 871.35 381.97 C 871.08 384.66, 870.97 386.25, 870.68 389.02 C 870.39 391.80, 870.04 393.40, 869.89 395.86 C 869.74 398.31, 869.74 399.53, 869.93 401.30 C 870.12 403.06, 870.28 403.97, 870.83 404.70 C 871.39 405.43, 871.98 405.50, 872.71 404.95 C 873.43 404.40, 873.77 403.59, 874.46 401.97 C 875.15 400.34, 875.56 399.23, 876.16 396.83 C 876.77 394.43, 876.97 392.79, 877.47 389.99 C 877.97 387.18, 878.31 385.57, 878.65 382.79 C 879.00 380.01, 879.21 378.45, 879.19 376.09 C 879.16 373.74, 878.97 372.60, 878.53 371.02 C 878.09 369.44, 877.78 368.75, 876.99 368.18 C 876.20 367.62, 875.36 367.66, 874.58 368.20" style="stroke: black; fill: black;"/><path d="M 886.77,335.02 C 887.73 335.32, 888.50 335.30, 888.53 335.32 C 888.55 335.34, 887.46 335.27, 886.89 335.13 C 886.32 335.00, 885.92 335.09, 885.67 334.65 C 885.43 334.21, 885.97 333.36, 885.66 332.92 C 885.35 332.48, 884.81 332.46, 884.13 332.44 C 883.45 332.41, 882.35 332.52, 882.27 332.80 C 882.19 333.07, 882.85 333.35, 883.75 333.80 C 884.65 334.24, 885.82 334.71, 886.77 335.02" style="stroke: black; fill: black;"/><path d="M 909.79,386.98 C 910.32 387.81, 911.09 388.33, 912.67 388.68 C 914.25 389.03, 915.43 389.10, 917.69 388.72 C 919.96 388.35, 921.49 387.92, 924.01 386.79 C 926.53 385.65, 927.89 384.68, 930.30 383.05 C 932.70 381.42, 933.91 380.46, 936.03 378.65 C 938.14 376.83, 939.21 375.87, 940.88 373.99 C 942.55 372.10, 943.34 371.13, 944.36 369.21 C 945.37 367.29, 945.78 366.26, 945.96 364.38 C 946.14 362.49, 946.04 361.42, 945.26 359.77 C 944.48 358.12, 943.77 357.20, 942.05 356.13 C 940.33 355.06, 939.10 354.62, 936.67 354.42 C 934.24 354.21, 932.72 354.33, 929.91 355.11 C 927.10 355.88, 925.52 356.66, 922.64 358.31 C 919.76 359.96, 918.19 361.08, 915.51 363.34 C 912.83 365.60, 911.43 366.91, 909.24 369.61 C 907.05 372.30, 905.98 373.80, 904.57 376.82 C 903.16 379.84, 902.55 381.52, 902.19 384.69 C 901.83 387.85, 901.89 389.60, 902.76 392.64 C 903.63 395.67, 904.44 397.32, 906.52 399.87 C 908.60 402.42, 910.09 403.60, 913.17 405.40 C 916.26 407.21, 918.16 407.87, 921.95 408.90 C 925.74 409.93, 928.26 410.21, 932.11 410.57 C 935.95 410.93, 938.13 411.09, 941.16 410.72 C 944.20 410.35, 946.11 409.58, 947.30 408.73 C 948.48 407.88, 948.34 407.11, 947.08 406.49 C 945.83 405.88, 943.93 405.87, 941.03 405.66 C 938.13 405.45, 936.13 405.76, 932.58 405.44 C 929.03 405.12, 926.61 404.95, 923.27 404.04 C 919.94 403.13, 918.36 402.42, 915.89 400.88 C 913.42 399.34, 912.45 398.30, 910.90 396.34 C 909.35 394.39, 908.76 393.31, 908.14 391.11 C 907.52 388.91, 907.53 387.73, 907.81 385.34 C 908.09 382.94, 908.43 381.59, 909.55 379.13 C 910.68 376.68, 911.55 375.35, 913.45 373.07 C 915.35 370.79, 916.64 369.60, 919.06 367.75 C 921.48 365.91, 923.02 365.05, 925.56 363.84 C 928.09 362.62, 929.52 362.29, 931.73 361.68 C 933.93 361.08, 934.98 360.95, 936.59 360.80 C 938.19 360.65, 938.83 360.73, 939.75 360.93 C 940.67 361.12, 940.90 361.24, 941.19 361.77 C 941.47 362.30, 941.47 362.64, 941.17 363.56 C 940.87 364.48, 940.61 365.11, 939.69 366.37 C 938.77 367.63, 938.10 368.40, 936.56 369.87 C 935.03 371.33, 934.01 372.19, 932.03 373.68 C 930.04 375.17, 928.83 376.02, 926.65 377.32 C 924.46 378.62, 923.21 379.26, 921.08 380.18 C 918.95 381.10, 917.75 381.32, 916.00 381.94 C 914.26 382.56, 913.55 382.78, 912.35 383.29 C 911.15 383.81, 910.53 383.78, 910.01 384.52 C 909.50 385.26, 909.26 386.15, 909.79 386.98" style="stroke: black; fill: black;"/><path d="M 1063.92,326.00 C 1063.21 326.57, 1063.08 327.14, 1062.68 328.68 C 1062.27 330.21, 1061.99 331.16, 1061.91 333.67 C 1061.83 336.18, 1062.22 337.81, 1062.28 341.23 C 1062.34 344.64, 1062.38 346.71, 1062.19 350.76 C 1062.00 354.81, 1061.77 357.12, 1061.34 361.46 C 1060.91 365.79, 1060.61 368.17, 1060.05 372.45 C 1059.49 376.72, 1059.16 378.95, 1058.54 382.82 C 1057.93 386.69, 1057.48 388.62, 1056.98 391.81 C 1056.48 395.00, 1056.21 396.54, 1056.03 398.79 C 1055.85 401.04, 1055.90 401.79, 1056.09 403.07 C 1056.29 404.34, 1056.64 404.65, 1056.99 405.15 C 1057.34 405.66, 1057.57 405.53, 1057.84 405.60 C 1058.11 405.66, 1058.12 405.55, 1058.36 405.47 C 1058.60 405.38, 1058.67 405.57, 1059.03 405.17 C 1059.38 404.77, 1059.72 404.62, 1060.15 403.47 C 1060.58 402.32, 1060.81 401.62, 1061.18 399.42 C 1061.55 397.22, 1061.66 395.67, 1062.00 392.47 C 1062.33 389.27, 1062.44 387.30, 1062.87 383.40 C 1063.31 379.50, 1063.62 377.27, 1064.17 372.97 C 1064.71 368.68, 1065.02 366.30, 1065.58 361.94 C 1066.14 357.58, 1066.44 355.26, 1066.96 351.18 C 1067.48 347.09, 1067.79 345.00, 1068.18 341.51 C 1068.57 338.01, 1068.96 336.30, 1068.89 333.69 C 1068.83 331.08, 1068.40 330.03, 1067.87 328.45 C 1067.33 326.88, 1067.01 326.32, 1066.22 325.83 C 1065.43 325.34, 1064.62 325.43, 1063.92 326.00" style="stroke: black; fill: black;"/><path d="M 1045.91,324.88 C 1046.72 324.93, 1046.92 324.56, 1047.93 324.01 C 1048.93 323.46, 1049.38 323.11, 1050.93 322.12 C 1052.47 321.13, 1053.31 320.38, 1055.65 319.04 C 1058.00 317.70, 1059.42 316.69, 1062.64 315.42 C 1065.86 314.15, 1067.94 313.53, 1071.74 312.69 C 1075.54 311.85, 1077.73 311.50, 1081.65 311.23 C 1085.56 310.96, 1087.68 310.98, 1091.31 311.34 C 1094.94 311.70, 1096.80 312.10, 1099.79 313.04 C 1102.78 313.97, 1104.08 314.77, 1106.25 316.01 C 1108.42 317.26, 1109.35 317.91, 1110.65 319.28 C 1111.96 320.65, 1112.38 321.41, 1112.77 322.89 C 1113.15 324.36, 1113.10 325.09, 1112.57 326.64 C 1112.04 328.18, 1111.50 328.96, 1110.12 330.61 C 1108.75 332.27, 1107.74 333.20, 1105.70 334.91 C 1103.66 336.62, 1102.33 337.62, 1099.91 339.16 C 1097.49 340.69, 1095.94 341.31, 1093.60 342.58 C 1091.26 343.85, 1089.98 344.39, 1088.21 345.50 C 1086.45 346.61, 1085.66 347.02, 1084.78 348.12 C 1083.90 349.21, 1083.71 349.82, 1083.82 350.98 C 1083.93 352.15, 1084.28 352.94, 1085.32 353.95 C 1086.36 354.95, 1087.20 355.33, 1089.02 356.00 C 1090.83 356.67, 1092.03 356.70, 1094.39 357.32 C 1096.75 357.93, 1098.22 358.14, 1100.82 359.06 C 1103.42 359.99, 1104.92 360.54, 1107.39 361.93 C 1109.87 363.32, 1111.16 364.21, 1113.20 366.02 C 1115.24 367.83, 1116.17 368.94, 1117.58 370.99 C 1119.00 373.03, 1119.63 374.12, 1120.28 376.24 C 1120.93 378.37, 1121.07 379.47, 1120.84 381.61 C 1120.62 383.74, 1120.23 384.79, 1119.16 386.93 C 1118.08 389.06, 1117.43 390.22, 1115.47 392.28 C 1113.51 394.34, 1112.25 395.43, 1109.36 397.23 C 1106.47 399.03, 1104.66 399.93, 1101.04 401.30 C 1097.42 402.67, 1095.31 403.27, 1091.28 404.08 C 1087.25 404.89, 1084.97 405.14, 1080.87 405.35 C 1076.78 405.56, 1074.58 405.50, 1070.79 405.13 C 1066.99 404.77, 1065.07 404.41, 1061.91 403.54 C 1058.75 402.67, 1057.33 401.94, 1055.01 400.79 C 1052.69 399.63, 1051.80 398.88, 1050.29 397.75 C 1048.78 396.63, 1048.36 396.03, 1047.44 395.16 C 1046.52 394.30, 1046.37 393.65, 1045.68 393.42 C 1045.00 393.20, 1044.34 393.26, 1044.01 394.03 C 1043.68 394.80, 1043.49 395.72, 1044.05 397.26 C 1044.61 398.80, 1045.10 400.02, 1046.82 401.72 C 1048.54 403.42, 1049.85 404.47, 1052.65 405.75 C 1055.44 407.03, 1057.25 407.40, 1060.81 408.14 C 1064.37 408.88, 1066.38 409.17, 1070.44 409.45 C 1074.49 409.73, 1076.77 409.76, 1081.10 409.52 C 1085.43 409.28, 1087.79 409.05, 1092.08 408.26 C 1096.38 407.47, 1098.61 406.91, 1102.57 405.55 C 1106.53 404.20, 1108.53 403.38, 1111.88 401.50 C 1115.23 399.62, 1116.84 398.54, 1119.34 396.16 C 1121.83 393.77, 1122.96 392.37, 1124.38 389.56 C 1125.80 386.76, 1126.16 385.12, 1126.43 382.15 C 1126.70 379.17, 1126.51 377.57, 1125.72 374.68 C 1124.93 371.78, 1124.20 370.27, 1122.48 367.67 C 1120.75 365.08, 1119.48 363.86, 1117.08 361.69 C 1114.68 359.52, 1113.22 358.55, 1110.48 356.81 C 1107.74 355.06, 1106.17 354.28, 1103.38 352.95 C 1100.58 351.62, 1099.04 350.98, 1096.49 350.16 C 1093.95 349.33, 1092.61 349.00, 1090.65 348.81 C 1088.69 348.63, 1087.75 348.84, 1086.68 349.24 C 1085.61 349.63, 1085.28 350.30, 1085.30 350.79 C 1085.32 351.27, 1085.70 351.68, 1086.78 351.66 C 1087.87 351.65, 1088.77 351.41, 1090.72 350.73 C 1092.68 350.05, 1094.06 349.52, 1096.57 348.26 C 1099.07 347.00, 1100.59 346.12, 1103.25 344.43 C 1105.91 342.75, 1107.52 341.87, 1109.89 339.84 C 1112.25 337.81, 1113.50 336.64, 1115.09 334.26 C 1116.68 331.89, 1117.31 330.51, 1117.82 327.97 C 1118.33 325.44, 1118.30 324.01, 1117.64 321.58 C 1116.98 319.16, 1116.27 317.92, 1114.53 315.85 C 1112.79 313.78, 1111.63 312.75, 1108.95 311.24 C 1106.27 309.74, 1104.56 309.22, 1101.12 308.34 C 1097.67 307.46, 1095.66 307.15, 1091.71 306.84 C 1087.76 306.53, 1085.54 306.54, 1081.37 306.78 C 1077.19 307.02, 1074.92 307.35, 1070.84 308.04 C 1066.75 308.73, 1064.61 309.26, 1060.95 310.24 C 1057.28 311.21, 1055.37 311.60, 1052.52 312.91 C 1049.68 314.22, 1048.44 315.21, 1046.72 316.79 C 1045.01 318.36, 1044.52 319.39, 1043.95 320.79 C 1043.37 322.18, 1043.46 322.94, 1043.86 323.76 C 1044.25 324.57, 1045.10 324.83, 1045.91 324.88" style="stroke: black; fill: black;"/><path d="M 1175.82,368.03 C 1176.08 367.16, 1175.95 366.46, 1175.31 365.41 C 1174.67 364.36, 1174.09 363.66, 1172.63 362.79 C 1171.17 361.91, 1170.07 361.43, 1168.00 361.03 C 1165.93 360.62, 1164.73 360.57, 1162.28 360.77 C 1159.83 360.97, 1158.45 361.12, 1155.75 362.01 C 1153.05 362.90, 1151.53 363.55, 1148.77 365.21 C 1146.01 366.88, 1144.54 368.01, 1141.96 370.32 C 1139.38 372.63, 1138.03 374.03, 1135.88 376.76 C 1133.72 379.49, 1132.62 381.05, 1131.17 383.96 C 1129.73 386.87, 1129.13 388.51, 1128.65 391.31 C 1128.17 394.10, 1128.23 395.58, 1128.79 397.93 C 1129.35 400.27, 1129.93 401.43, 1131.44 403.04 C 1132.95 404.65, 1134.07 405.34, 1136.35 405.98 C 1138.63 406.63, 1140.08 406.75, 1142.82 406.26 C 1145.56 405.78, 1147.08 405.09, 1150.04 403.57 C 1153.01 402.04, 1154.62 400.87, 1157.64 398.64 C 1160.66 396.41, 1162.24 394.97, 1165.16 392.41 C 1168.08 389.85, 1169.61 388.34, 1172.23 385.81 C 1174.85 383.29, 1176.25 381.99, 1178.26 379.78 C 1180.26 377.56, 1181.17 376.46, 1182.25 374.74 C 1183.33 373.01, 1183.65 372.10, 1183.66 371.17 C 1183.67 370.24, 1183.08 369.84, 1182.30 370.08 C 1181.51 370.32, 1180.68 370.81, 1179.73 372.38 C 1178.79 373.95, 1178.20 375.26, 1177.58 377.91 C 1176.96 380.56, 1177.02 382.47, 1176.63 385.63 C 1176.25 388.79, 1175.84 390.64, 1175.65 393.71 C 1175.47 396.78, 1175.32 398.47, 1175.70 401.00 C 1176.09 403.53, 1176.72 404.76, 1177.56 406.35 C 1178.41 407.94, 1179.12 408.56, 1179.94 408.94 C 1180.76 409.31, 1181.29 408.98, 1181.65 408.23 C 1182.00 407.48, 1181.72 406.73, 1181.70 405.20 C 1181.69 403.68, 1181.51 402.78, 1181.57 400.60 C 1181.63 398.42, 1181.66 397.05, 1182.01 394.29 C 1182.36 391.53, 1182.61 389.74, 1183.31 386.82 C 1184.00 383.89, 1184.94 382.26, 1185.48 379.65 C 1186.01 377.03, 1186.19 375.68, 1186.00 373.73 C 1185.82 371.79, 1185.43 370.85, 1184.55 369.91 C 1183.68 368.96, 1182.90 368.71, 1181.61 368.99 C 1180.33 369.28, 1179.66 369.91, 1178.14 371.32 C 1176.62 372.73, 1175.91 373.84, 1174.02 376.03 C 1172.13 378.23, 1171.10 379.75, 1168.68 382.28 C 1166.26 384.80, 1164.74 386.28, 1161.93 388.68 C 1159.11 391.07, 1157.53 392.39, 1154.62 394.26 C 1151.70 396.14, 1150.00 396.87, 1147.37 398.05 C 1144.75 399.23, 1143.49 399.62, 1141.49 400.18 C 1139.49 400.73, 1138.70 400.89, 1137.36 400.83 C 1136.03 400.76, 1135.54 400.61, 1134.82 399.85 C 1134.09 399.09, 1133.87 398.53, 1133.75 397.05 C 1133.63 395.56, 1133.70 394.54, 1134.21 392.43 C 1134.73 390.32, 1135.12 388.95, 1136.32 386.51 C 1137.52 384.06, 1138.35 382.56, 1140.22 380.19 C 1142.09 377.81, 1143.35 376.55, 1145.68 374.64 C 1148.01 372.74, 1149.44 371.92, 1151.86 370.64 C 1154.27 369.36, 1155.58 368.93, 1157.76 368.24 C 1159.95 367.55, 1161.01 367.32, 1162.78 367.19 C 1164.54 367.06, 1165.23 367.25, 1166.58 367.59 C 1167.92 367.93, 1168.43 368.46, 1169.50 368.88 C 1170.56 369.30, 1171.00 369.52, 1171.90 369.70 C 1172.81 369.88, 1173.25 370.11, 1174.03 369.78 C 1174.81 369.45, 1175.57 368.91, 1175.82 368.03" style="stroke: black; fill: black;"/><path d="M 1244.67,377.45 C 1245.03 376.63, 1245.00 376.00, 1244.51 374.94 C 1244.03 373.89, 1243.57 373.14, 1242.26 372.17 C 1240.95 371.19, 1239.94 370.63, 1237.96 370.06 C 1235.98 369.49, 1234.76 369.32, 1232.35 369.32 C 1229.93 369.31, 1228.55 369.41, 1225.88 370.05 C 1223.22 370.68, 1221.68 371.17, 1219.01 372.49 C 1216.34 373.81, 1214.89 374.73, 1212.53 376.66 C 1210.16 378.58, 1208.95 379.79, 1207.19 382.11 C 1205.43 384.43, 1204.61 385.79, 1203.74 388.25 C 1202.87 390.71, 1202.64 392.11, 1202.84 394.40 C 1203.04 396.68, 1203.48 397.93, 1204.74 399.66 C 1206.00 401.40, 1207.01 402.22, 1209.14 403.07 C 1211.28 403.93, 1212.71 404.15, 1215.40 403.94 C 1218.10 403.74, 1219.70 403.27, 1222.63 402.04 C 1225.57 400.80, 1227.12 399.68, 1230.07 397.77 C 1233.02 395.87, 1234.58 394.64, 1237.38 392.52 C 1240.18 390.39, 1241.67 389.21, 1244.07 387.16 C 1246.47 385.11, 1247.67 384.03, 1249.39 382.28 C 1251.12 380.52, 1251.81 379.63, 1252.70 378.37 C 1253.59 377.12, 1253.82 376.59, 1253.85 376.01 C 1253.88 375.44, 1253.37 375.14, 1252.85 375.52 C 1252.33 375.90, 1251.73 376.34, 1251.24 377.90 C 1250.75 379.46, 1250.51 380.63, 1250.42 383.31 C 1250.32 385.99, 1250.77 387.72, 1250.77 391.29 C 1250.78 394.86, 1250.69 397.02, 1250.44 401.16 C 1250.20 405.30, 1250.04 407.63, 1249.56 411.99 C 1249.09 416.36, 1248.82 418.69, 1248.05 422.99 C 1247.29 427.29, 1246.86 429.51, 1245.76 433.49 C 1244.66 437.47, 1244.04 439.41, 1242.57 442.88 C 1241.09 446.36, 1240.26 448.05, 1238.40 450.87 C 1236.55 453.70, 1235.46 454.94, 1233.27 457.01 C 1231.08 459.08, 1229.92 459.93, 1227.46 461.24 C 1225.00 462.56, 1223.68 463.00, 1220.97 463.59 C 1218.27 464.18, 1216.80 464.29, 1213.93 464.19 C 1211.07 464.10, 1209.53 463.87, 1206.65 463.11 C 1203.77 462.35, 1202.20 461.73, 1199.53 460.38 C 1196.85 459.02, 1195.46 458.05, 1193.28 456.33 C 1191.10 454.61, 1190.12 453.57, 1188.63 451.76 C 1187.14 449.96, 1186.62 448.95, 1185.82 447.30 C 1185.02 445.66, 1185.01 444.74, 1184.63 443.53 C 1184.26 442.33, 1184.17 442.04, 1183.95 441.27 C 1183.72 440.49, 1183.92 440.09, 1183.51 439.66 C 1183.10 439.24, 1182.51 438.90, 1181.88 439.14 C 1181.26 439.37, 1180.82 439.81, 1180.38 440.84 C 1179.93 441.87, 1179.61 442.54, 1179.67 444.28 C 1179.74 446.02, 1179.82 447.29, 1180.71 449.52 C 1181.60 451.75, 1182.28 453.19, 1184.11 455.45 C 1185.93 457.71, 1187.22 458.87, 1189.82 460.83 C 1192.42 462.79, 1194.03 463.75, 1197.13 465.24 C 1200.22 466.74, 1201.96 467.43, 1205.29 468.30 C 1208.62 469.16, 1210.39 469.48, 1213.76 469.57 C 1217.14 469.67, 1218.92 469.56, 1222.16 468.79 C 1225.40 468.02, 1227.05 467.40, 1229.96 465.74 C 1232.86 464.08, 1234.23 462.97, 1236.68 460.48 C 1239.13 457.99, 1240.26 456.49, 1242.22 453.29 C 1244.18 450.09, 1244.99 448.23, 1246.47 444.48 C 1247.96 440.73, 1248.54 438.70, 1249.65 434.54 C 1250.75 430.39, 1251.17 428.11, 1251.98 423.70 C 1252.79 419.29, 1253.07 416.93, 1253.69 412.51 C 1254.31 408.09, 1254.52 405.76, 1255.07 401.60 C 1255.61 397.45, 1255.86 395.30, 1256.43 391.73 C 1257.00 388.16, 1257.68 386.50, 1257.90 383.75 C 1258.12 380.99, 1258.00 379.80, 1257.54 377.95 C 1257.08 376.11, 1256.59 375.42, 1255.61 374.52 C 1254.62 373.62, 1253.87 373.40, 1252.61 373.45 C 1251.35 373.50, 1250.75 373.84, 1249.31 374.78 C 1247.88 375.71, 1247.21 376.52, 1245.42 378.14 C 1243.63 379.76, 1242.62 380.87, 1240.35 382.88 C 1238.09 384.88, 1236.74 386.17, 1234.09 388.17 C 1231.44 390.17, 1229.88 391.30, 1227.10 392.86 C 1224.32 394.43, 1222.69 395.02, 1220.18 395.99 C 1217.68 396.97, 1216.47 397.32, 1214.57 397.72 C 1212.68 398.13, 1211.89 398.19, 1210.70 398.02 C 1209.50 397.85, 1209.13 397.63, 1208.59 396.88 C 1208.05 396.12, 1207.90 395.53, 1207.99 394.24 C 1208.08 392.94, 1208.23 392.06, 1209.04 390.41 C 1209.84 388.76, 1210.52 387.73, 1212.02 385.99 C 1213.52 384.26, 1214.57 383.24, 1216.54 381.73 C 1218.52 380.21, 1219.73 379.47, 1221.91 378.42 C 1224.08 377.38, 1225.34 377.00, 1227.42 376.50 C 1229.51 376.00, 1230.60 375.91, 1232.32 375.93 C 1234.04 375.94, 1234.77 376.20, 1236.04 376.58 C 1237.30 376.97, 1237.73 377.42, 1238.66 377.86 C 1239.59 378.31, 1239.88 378.56, 1240.69 378.79 C 1241.50 379.02, 1241.92 379.28, 1242.71 379.01 C 1243.51 378.75, 1244.31 378.26, 1244.67 377.45" style="stroke: black; fill: black;"/></svg>