<svg xmlns="http://www.w3.org/2000/svg" id="canvas" viewBox="202.995 295.044 983.835 123.286"><path d="M 209.41,309.69 C 208.56 310.34, 208.11 311.06, 207.60 313.13 C 207.09 315.19, 207.00 316.54, 206.85 320.01 C 206.71 323.48, 206.92 325.79, 206.89 330.46 C 206.85 335.13, 206.79 337.93, 206.67 343.36 C 206.55 348.80, 206.43 351.89, 206.30 357.62 C 206.17 363.34, 206.04 366.46, 206.01 371.99 C 205.98 377.51, 205.98 380.31, 206.15 385.25 C 206.32 390.19, 206.47 392.59, 206.84 396.68 C 207.22 400.78, 207.27 402.70, 208.04 405.73 C 208.81 408.76, 209.40 410.00, 210.71 411.84 C 212.02 413.68, 212.85 414.34, 214.58 414.92 C 216.30 415.50, 217.44 415.49, 219.33 414.73 C 221.22 413.97, 222.37 413.27, 224.03 411.12 C 225.69 408.97, 226.17 407.30, 227.63 403.97 C 229.08 400.63, 229.74 398.49, 231.31 394.43 C 232.88 390.36, 233.78 388.00, 235.48 383.65 C 237.18 379.31, 238.09 376.91, 239.81 372.71 C 241.53 368.52, 242.44 366.40, 244.08 362.68 C 245.71 358.96, 246.56 357.16, 248.01 354.11 C 249.46 351.06, 250.25 349.72, 251.32 347.44 C 252.39 345.17, 252.89 344.20, 253.36 342.74 C 253.83 341.27, 253.84 340.54, 253.68 340.10 C 253.52 339.66, 252.92 339.59, 252.56 340.52 C 252.19 341.44, 251.67 342.30, 251.83 344.72 C 251.99 347.14, 252.74 348.87, 253.36 352.61 C 253.97 356.35, 254.34 358.84, 254.88 363.43 C 255.43 368.01, 255.60 370.75, 256.08 375.51 C 256.56 380.28, 256.80 382.87, 257.29 387.24 C 257.78 391.61, 257.96 393.78, 258.52 397.38 C 259.07 400.98, 259.15 402.69, 260.06 405.26 C 260.98 407.82, 261.65 408.87, 263.10 410.21 C 264.56 411.56, 265.53 412.00, 267.34 411.98 C 269.15 411.97, 270.40 411.71, 272.16 410.13 C 273.92 408.54, 274.66 407.19, 276.15 404.04 C 277.64 400.88, 278.07 398.77, 279.62 394.35 C 281.17 389.93, 282.08 387.24, 283.92 381.92 C 285.76 376.60, 286.82 373.51, 288.81 367.76 C 290.81 362.01, 291.89 358.87, 293.89 353.18 C 295.89 347.48, 296.92 344.51, 298.83 339.27 C 300.73 334.03, 301.67 331.46, 303.41 326.98 C 305.14 322.49, 305.95 320.37, 307.51 316.84 C 309.07 313.30, 310.00 311.88, 311.20 309.29 C 312.41 306.70, 312.91 305.63, 313.53 303.88 C 314.14 302.13, 314.14 301.56, 314.28 300.54 C 314.41 299.51, 314.47 299.26, 314.22 298.76 C 313.97 298.26, 313.59 298.00, 313.02 298.05 C 312.45 298.09, 312.16 298.25, 311.36 298.98 C 310.56 299.72, 310.06 300.08, 309.04 301.71 C 308.02 303.34, 307.36 304.43, 306.26 307.15 C 305.17 309.87, 304.81 311.59, 303.56 315.31 C 302.31 319.03, 301.58 321.17, 300.02 325.74 C 298.46 330.32, 297.58 332.91, 295.75 338.18 C 293.93 343.46, 292.91 346.43, 290.90 352.12 C 288.89 357.82, 287.80 360.95, 285.69 366.64 C 283.59 372.34, 282.48 375.42, 280.40 380.60 C 278.31 385.79, 277.25 388.44, 275.28 392.56 C 273.31 396.68, 272.06 398.41, 270.54 401.20 C 269.02 403.99, 268.41 405.03, 267.69 406.53 C 266.97 408.04, 267.20 408.48, 266.94 408.72 C 266.68 408.95, 266.74 408.75, 266.41 407.72 C 266.08 406.69, 265.91 405.83, 265.28 403.59 C 264.66 401.34, 264.03 399.87, 263.29 396.49 C 262.54 393.11, 262.15 390.98, 261.56 386.71 C 260.97 382.43, 260.71 379.86, 260.33 375.13 C 259.94 370.39, 259.81 367.66, 259.62 363.05 C 259.43 358.43, 259.49 355.92, 259.36 352.03 C 259.24 348.15, 259.63 346.26, 259.01 343.61 C 258.39 340.97, 257.58 340.00, 256.25 338.83 C 254.93 337.65, 253.83 337.48, 252.38 337.75 C 250.93 338.02, 250.25 338.71, 249.00 340.17 C 247.75 341.62, 247.26 342.62, 246.14 345.01 C 245.02 347.41, 244.63 348.94, 243.40 352.13 C 242.17 355.32, 241.49 357.18, 240.00 360.97 C 238.50 364.77, 237.62 366.91, 235.91 371.12 C 234.20 375.32, 233.27 377.73, 231.44 382.00 C 229.62 386.27, 228.64 388.61, 226.77 392.45 C 224.91 396.30, 223.81 398.25, 222.12 401.21 C 220.43 404.18, 219.40 405.34, 218.31 407.27 C 217.22 409.20, 217.15 409.99, 216.66 410.87 C 216.18 411.75, 216.26 411.94, 215.89 411.67 C 215.52 411.40, 215.35 410.99, 214.80 409.53 C 214.25 408.07, 213.89 407.05, 213.13 404.37 C 212.38 401.69, 211.69 399.99, 211.02 396.14 C 210.36 392.28, 210.12 389.90, 209.80 385.07 C 209.49 380.24, 209.45 377.46, 209.44 371.99 C 209.44 366.52, 209.56 363.42, 209.77 357.72 C 209.99 352.03, 210.15 348.93, 210.51 343.53 C 210.88 338.13, 211.11 335.35, 211.59 330.72 C 212.07 326.09, 212.60 323.84, 212.91 320.40 C 213.21 316.96, 213.32 315.63, 213.11 313.53 C 212.91 311.42, 212.60 310.65, 211.86 309.88 C 211.12 309.12, 210.26 309.04, 209.41 309.69" style="stroke: black; fill: black;"/><path d="M 327.29,380.05 C 328.09 380.74, 328.99 380.96, 330.72 380.93 C 332.46 380.89, 333.66 380.71, 335.97 379.89 C 338.29 379.07, 339.81 378.40, 342.30 376.82 C 344.80 375.24, 346.07 374.02, 348.46 371.99 C 350.85 369.96, 352.13 368.88, 354.25 366.67 C 356.37 364.46, 357.46 363.26, 359.06 360.92 C 360.65 358.57, 361.37 357.29, 362.21 354.94 C 363.06 352.59, 363.35 351.36, 363.30 349.16 C 363.24 346.97, 363.02 345.77, 361.94 343.97 C 360.85 342.17, 359.94 341.17, 357.87 340.17 C 355.79 339.17, 354.31 338.79, 351.56 338.98 C 348.82 339.17, 347.17 339.66, 344.14 341.11 C 341.12 342.56, 339.51 343.76, 336.44 346.21 C 333.38 348.65, 331.67 350.16, 328.81 353.32 C 325.96 356.48, 324.46 358.36, 322.18 362.01 C 319.89 365.66, 318.78 367.69, 317.39 371.58 C 316.00 375.46, 315.45 377.58, 315.23 381.42 C 315.01 385.27, 315.15 387.33, 316.28 390.82 C 317.41 394.31, 318.38 396.12, 320.87 398.88 C 323.35 401.63, 325.08 402.80, 328.69 404.57 C 332.30 406.35, 334.49 406.93, 338.91 407.74 C 343.33 408.55, 346.29 408.59, 350.79 408.63 C 355.29 408.66, 357.85 408.52, 361.41 407.90 C 364.97 407.28, 367.25 406.49, 368.61 405.54 C 369.96 404.59, 369.72 403.59, 368.19 403.14 C 366.65 402.70, 364.38 403.17, 360.91 403.32 C 357.44 403.47, 355.06 403.94, 350.82 403.92 C 346.59 403.89, 343.73 403.92, 339.74 403.19 C 335.74 402.46, 333.86 401.81, 330.83 400.28 C 327.81 398.74, 326.57 397.72, 324.61 395.52 C 322.65 393.32, 321.96 392.03, 321.04 389.26 C 320.13 386.49, 319.90 384.90, 320.05 381.68 C 320.20 378.45, 320.57 376.57, 321.78 373.14 C 322.99 369.70, 323.98 367.79, 326.11 364.50 C 328.23 361.22, 329.68 359.46, 332.40 356.70 C 335.12 353.94, 336.83 352.60, 339.72 350.70 C 342.61 348.79, 344.32 348.21, 346.85 347.18 C 349.38 346.15, 350.55 345.91, 352.35 345.55 C 354.16 345.19, 354.82 345.19, 355.88 345.38 C 356.94 345.58, 357.23 345.81, 357.64 346.52 C 358.04 347.24, 358.10 347.73, 357.91 348.96 C 357.72 350.18, 357.51 351.00, 356.70 352.65 C 355.89 354.30, 355.27 355.31, 353.84 357.19 C 352.41 359.07, 351.48 360.17, 349.56 362.06 C 347.64 363.95, 346.48 365.02, 344.24 366.65 C 341.99 368.29, 340.61 368.96, 338.35 370.24 C 336.10 371.51, 334.82 372.00, 332.95 373.03 C 331.08 374.05, 330.24 374.47, 329.00 375.36 C 327.76 376.25, 327.07 376.54, 326.73 377.48 C 326.39 378.42, 326.49 379.36, 327.29 380.05" style="stroke: black; fill: black;"/><path d="M 517.67,342.42 C 517.32 341.49, 516.74 340.93, 515.32 340.26 C 513.89 339.59, 512.82 339.23, 510.54 339.08 C 508.26 338.92, 506.69 338.97, 503.89 339.50 C 501.10 340.02, 499.50 340.65, 496.56 341.71 C 493.61 342.78, 492.00 343.44, 489.18 344.81 C 486.36 346.17, 484.81 346.87, 482.46 348.54 C 480.11 350.20, 478.96 351.16, 477.44 353.13 C 475.91 355.10, 475.27 356.23, 474.82 358.39 C 474.37 360.54, 474.44 361.79, 475.17 363.93 C 475.90 366.06, 476.67 367.19, 478.48 369.06 C 480.28 370.94, 481.58 371.82, 484.21 373.30 C 486.84 374.78, 488.59 375.18, 491.63 376.47 C 494.67 377.75, 496.42 378.38, 499.40 379.73 C 502.38 381.08, 503.98 381.84, 506.55 383.22 C 509.11 384.60, 510.34 385.32, 512.23 386.61 C 514.11 387.91, 514.95 388.51, 515.98 389.68 C 517.01 390.85, 517.26 391.38, 517.38 392.48 C 517.50 393.59, 517.38 394.06, 516.59 395.20 C 515.79 396.34, 515.12 396.83, 513.42 398.16 C 511.71 399.50, 510.63 400.41, 508.05 401.86 C 505.46 403.31, 503.79 404.20, 500.49 405.41 C 497.18 406.62, 495.13 407.18, 491.52 407.91 C 487.91 408.63, 485.83 408.89, 482.43 409.02 C 479.04 409.15, 477.30 408.92, 474.56 408.56 C 471.82 408.19, 470.66 407.71, 468.74 407.20 C 466.82 406.68, 466.20 406.40, 464.97 405.98 C 463.74 405.56, 463.33 405.03, 462.59 405.12 C 461.84 405.21, 461.25 405.57, 461.25 406.42 C 461.25 407.28, 461.48 408.17, 462.60 409.39 C 463.71 410.61, 464.57 411.51, 466.82 412.51 C 469.07 413.50, 470.68 414.00, 473.86 414.35 C 477.04 414.71, 479.00 414.55, 482.73 414.28 C 486.46 414.01, 488.60 413.72, 492.50 413.00 C 496.40 412.28, 498.53 411.78, 502.23 410.68 C 505.92 409.58, 507.85 408.99, 510.96 407.51 C 514.07 406.03, 515.65 405.22, 517.78 403.27 C 519.92 401.31, 520.71 400.01, 521.63 397.74 C 522.55 395.47, 522.64 394.17, 522.38 391.92 C 522.12 389.67, 521.65 388.54, 520.34 386.50 C 519.04 384.47, 518.03 383.48, 515.85 381.75 C 513.66 380.01, 512.21 379.33, 509.43 377.84 C 506.64 376.35, 504.93 375.73, 501.91 374.30 C 498.89 372.88, 497.14 372.17, 494.32 370.71 C 491.49 369.26, 490.08 368.35, 487.77 367.03 C 485.46 365.71, 484.34 365.16, 482.77 364.11 C 481.20 363.06, 480.57 362.67, 479.92 361.77 C 479.28 360.88, 479.19 360.56, 479.55 359.62 C 479.90 358.67, 480.39 358.16, 481.70 357.04 C 483.00 355.92, 484.01 355.24, 486.07 354.00 C 488.13 352.76, 489.45 351.96, 491.98 350.83 C 494.51 349.70, 496.07 349.11, 498.71 348.36 C 501.36 347.61, 502.80 347.45, 505.20 347.08 C 507.59 346.72, 508.81 346.77, 510.68 346.54 C 512.56 346.31, 513.31 346.24, 514.59 345.92 C 515.86 345.60, 516.44 345.63, 517.06 344.93 C 517.67 344.23, 518.01 343.36, 517.67 342.42" style="stroke: black; fill: black;"/><path d="M 543.45,387.27 C 544.15 388.01, 544.97 388.28, 546.59 388.39 C 548.21 388.50, 549.31 388.43, 551.55 387.81 C 553.79 387.19, 555.28 386.62, 557.80 385.31 C 560.32 383.99, 561.64 382.97, 564.14 381.24 C 566.63 379.51, 567.96 378.56, 570.27 376.65 C 572.58 374.74, 573.79 373.71, 575.68 371.67 C 577.56 369.64, 578.45 368.57, 579.68 366.48 C 580.91 364.38, 581.41 363.28, 581.81 361.20 C 582.22 359.12, 582.28 357.98, 581.70 356.06 C 581.12 354.15, 580.53 353.03, 578.92 351.63 C 577.31 350.23, 576.06 349.59, 573.66 349.06 C 571.27 348.53, 569.77 348.53, 566.93 348.98 C 564.09 349.44, 562.47 349.97, 559.46 351.32 C 556.46 352.68, 554.80 353.67, 551.92 355.76 C 549.04 357.85, 547.55 359.14, 545.06 361.77 C 542.57 364.40, 541.29 365.88, 539.46 368.92 C 537.62 371.96, 536.79 373.69, 535.88 376.98 C 534.97 380.26, 534.67 382.07, 534.91 385.35 C 535.14 388.63, 535.60 390.43, 537.04 393.38 C 538.49 396.33, 539.60 397.84, 542.12 400.10 C 544.64 402.36, 546.29 403.31, 549.64 404.68 C 553.00 406.05, 554.97 406.51, 558.87 406.96 C 562.77 407.40, 564.95 407.35, 569.14 406.89 C 573.33 406.43, 575.55 405.91, 579.83 404.65 C 584.11 403.39, 586.34 402.54, 590.53 400.58 C 594.71 398.63, 596.88 397.41, 600.74 394.87 C 604.59 392.32, 606.47 390.80, 609.81 387.84 C 613.15 384.88, 614.69 383.26, 617.44 380.05 C 620.18 376.84, 621.40 375.14, 623.52 371.77 C 625.64 368.41, 626.50 366.65, 628.04 363.23 C 629.57 359.81, 630.15 358.07, 631.19 354.67 C 632.24 351.28, 632.60 349.54, 633.27 346.25 C 633.93 342.95, 634.19 341.31, 634.51 338.19 C 634.84 335.08, 634.93 333.49, 634.89 330.67 C 634.84 327.84, 634.68 326.48, 634.29 324.07 C 633.90 321.67, 633.67 320.55, 632.92 318.64 C 632.17 316.72, 631.76 315.81, 630.53 314.48 C 629.30 313.15, 628.49 312.49, 626.78 311.98 C 625.08 311.48, 623.95 311.39, 622.01 311.94 C 620.07 312.48, 618.96 312.99, 617.07 314.70 C 615.19 316.42, 614.26 317.65, 612.58 320.52 C 610.90 323.39, 610.19 325.29, 608.66 329.07 C 607.13 332.84, 606.31 335.04, 604.92 339.39 C 603.54 343.74, 602.84 346.21, 601.75 350.82 C 600.66 355.44, 600.15 357.93, 599.50 362.47 C 598.84 367.01, 598.62 369.32, 598.47 373.53 C 598.31 377.73, 598.39 379.80, 598.71 383.50 C 599.04 387.20, 599.16 388.96, 600.11 392.02 C 601.05 395.08, 601.76 396.53, 603.44 398.79 C 605.11 401.05, 606.22 402.02, 608.49 403.32 C 610.76 404.62, 612.10 405.06, 614.80 405.29 C 617.51 405.52, 619.12 405.45, 622.02 404.48 C 624.92 403.51, 626.39 402.52, 629.31 400.44 C 632.23 398.36, 633.68 397.00, 636.62 394.09 C 639.56 391.18, 641.09 389.45, 643.99 385.88 C 646.90 382.31, 648.38 380.29, 651.13 376.22 C 653.88 372.16, 655.25 369.91, 657.75 365.55 C 660.25 361.18, 661.47 358.84, 663.63 354.41 C 665.79 349.97, 666.79 347.66, 668.54 343.39 C 670.29 339.13, 671.04 336.95, 672.37 333.09 C 673.70 329.22, 674.30 327.39, 675.17 324.07 C 676.05 320.74, 676.46 319.19, 676.74 316.45 C 677.01 313.72, 676.92 312.46, 676.54 310.38 C 676.17 308.30, 675.89 307.38, 674.86 306.05 C 673.83 304.72, 673.00 304.09, 671.37 303.74 C 669.75 303.38, 668.59 303.39, 666.72 304.27 C 664.86 305.15, 663.71 305.88, 662.03 308.15 C 660.35 310.41, 659.81 312.11, 658.33 315.59 C 656.84 319.07, 656.07 321.19, 654.58 325.54 C 653.10 329.89, 652.26 332.44, 650.92 337.33 C 649.57 342.22, 648.87 344.95, 647.86 349.99 C 646.86 355.03, 646.40 357.71, 645.87 362.53 C 645.34 367.34, 645.22 369.75, 645.22 374.05 C 645.22 378.35, 645.36 380.34, 645.87 384.01 C 646.38 387.68, 646.60 389.45, 647.76 392.41 C 648.91 395.36, 649.80 396.67, 651.63 398.80 C 653.46 400.93, 654.58 401.80, 656.90 403.04 C 659.22 404.28, 660.78 404.71, 663.22 404.98 C 665.66 405.25, 667.19 405.01, 669.09 404.39 C 670.99 403.76, 672.12 402.85, 672.72 401.85 C 673.32 400.85, 672.98 400.02, 672.10 399.39 C 671.22 398.76, 669.98 398.87, 668.33 398.71 C 666.69 398.56, 665.66 398.77, 663.87 398.61 C 662.08 398.45, 661.01 398.59, 659.39 397.91 C 657.78 397.23, 657.09 396.74, 655.78 395.22 C 654.47 393.70, 653.88 392.72, 652.83 390.32 C 651.77 387.92, 651.19 386.48, 650.50 383.21 C 649.81 379.95, 649.54 378.03, 649.38 373.97 C 649.22 369.92, 649.27 367.57, 649.72 362.92 C 650.17 358.28, 650.59 355.64, 651.61 350.76 C 652.63 345.87, 653.35 343.18, 654.82 338.48 C 656.29 333.77, 657.20 331.27, 658.96 327.23 C 660.71 323.19, 661.80 321.24, 663.60 318.27 C 665.39 315.31, 666.60 314.29, 667.92 312.40 C 669.24 310.52, 669.57 309.84, 670.18 308.86 C 670.79 307.88, 670.75 307.66, 670.95 307.50 C 671.15 307.35, 671.08 307.43, 671.16 308.10 C 671.24 308.78, 671.35 309.33, 671.33 310.89 C 671.32 312.45, 671.28 313.50, 671.07 315.92 C 670.86 318.34, 670.84 319.80, 670.27 322.98 C 669.70 326.15, 669.30 327.99, 668.21 331.78 C 667.13 335.57, 666.44 337.74, 664.84 341.93 C 663.24 346.12, 662.28 348.41, 660.20 352.75 C 658.12 357.09, 656.92 359.40, 654.45 363.64 C 651.98 367.88, 650.61 370.07, 647.85 373.95 C 645.09 377.83, 643.58 379.76, 640.66 383.06 C 637.74 386.35, 636.15 387.93, 633.24 390.44 C 630.33 392.95, 628.79 394.00, 626.12 395.59 C 623.46 397.18, 622.14 397.58, 619.92 398.37 C 617.71 399.16, 616.79 399.49, 615.04 399.54 C 613.28 399.59, 612.57 399.43, 611.15 398.63 C 609.72 397.84, 609.08 397.22, 607.92 395.55 C 606.76 393.89, 606.24 392.83, 605.36 390.30 C 604.47 387.78, 604.00 386.26, 603.49 382.93 C 602.99 379.59, 602.80 377.60, 602.82 373.62 C 602.84 369.65, 603.00 367.41, 603.60 363.05 C 604.20 358.69, 604.70 356.25, 605.83 351.82 C 606.95 347.38, 607.70 344.98, 609.23 340.88 C 610.76 336.78, 611.69 334.67, 613.49 331.32 C 615.28 327.97, 616.51 326.50, 618.20 324.13 C 619.89 321.77, 620.72 320.89, 621.92 319.47 C 623.12 318.06, 623.48 317.64, 624.20 317.04 C 624.92 316.44, 625.04 316.38, 625.50 316.49 C 625.97 316.60, 626.11 316.80, 626.52 317.59 C 626.93 318.37, 627.20 318.94, 627.56 320.40 C 627.92 321.86, 628.10 322.80, 628.32 324.88 C 628.53 326.96, 628.57 328.23, 628.64 330.80 C 628.71 333.37, 628.81 334.84, 628.67 337.74 C 628.53 340.64, 628.40 342.19, 627.92 345.30 C 627.45 348.40, 627.15 350.05, 626.30 353.26 C 625.44 356.47, 624.96 358.10, 623.63 361.33 C 622.30 364.56, 621.55 366.21, 619.65 369.40 C 617.76 372.59, 616.66 374.21, 614.13 377.28 C 611.61 380.34, 610.17 381.90, 607.03 384.73 C 603.90 387.56, 602.12 389.01, 598.46 391.42 C 594.81 393.83, 592.74 394.97, 588.77 396.77 C 584.80 398.57, 582.65 399.34, 578.63 400.42 C 574.62 401.51, 572.51 401.91, 568.70 402.20 C 564.88 402.49, 562.92 402.40, 559.55 401.88 C 556.17 401.36, 554.52 400.81, 551.83 399.59 C 549.13 398.37, 547.95 397.54, 546.07 395.77 C 544.19 394.01, 543.47 392.94, 542.41 390.76 C 541.35 388.59, 540.98 387.36, 540.77 384.90 C 540.56 382.45, 540.69 381.09, 541.39 378.47 C 542.08 375.85, 542.69 374.36, 544.23 371.80 C 545.78 369.24, 546.89 367.91, 549.10 365.69 C 551.31 363.47, 552.71 362.34, 555.29 360.70 C 557.87 359.07, 559.45 358.46, 562.02 357.52 C 564.59 356.58, 565.97 356.39, 568.12 356.00 C 570.27 355.60, 571.26 355.51, 572.77 355.53 C 574.28 355.54, 574.85 355.68, 575.67 356.06 C 576.49 356.45, 576.70 356.68, 576.88 357.43 C 577.06 358.19, 577.01 358.68, 576.58 359.84 C 576.14 360.99, 575.79 361.74, 574.69 363.20 C 573.58 364.66, 572.78 365.50, 571.05 367.14 C 569.33 368.78, 568.22 369.76, 566.08 371.40 C 563.94 373.04, 562.68 373.94, 560.33 375.34 C 557.98 376.74, 556.60 377.29, 554.33 378.38 C 552.05 379.47, 550.75 379.89, 548.94 380.78 C 547.13 381.67, 546.42 382.05, 545.26 382.82 C 544.09 383.60, 543.46 383.78, 543.10 384.67 C 542.74 385.56, 542.75 386.52, 543.45 387.27" style="stroke: black; fill: black;"/><path d="M 811.17,348.54 C 810.89 347.61, 810.38 347.08, 809.12 346.46 C 807.87 345.84, 806.92 345.50, 804.89 345.45 C 802.87 345.39, 801.51 345.52, 798.99 346.19 C 796.47 346.86, 795.02 347.37, 792.30 348.79 C 789.58 350.22, 788.16 351.25, 785.38 353.32 C 782.61 355.40, 781.07 356.59, 778.41 359.18 C 775.74 361.76, 774.32 363.26, 772.06 366.26 C 769.79 369.26, 768.66 370.95, 767.08 374.16 C 765.50 377.38, 764.76 379.12, 764.16 382.34 C 763.56 385.57, 763.52 387.32, 764.09 390.28 C 764.66 393.25, 765.29 394.78, 767.00 397.16 C 768.71 399.53, 769.94 400.71, 772.64 402.17 C 775.33 403.64, 777.07 404.04, 780.47 404.48 C 783.88 404.92, 785.80 404.81, 789.66 404.37 C 793.52 403.92, 795.96 403.27, 799.77 402.25 C 803.58 401.23, 805.82 400.65, 808.72 399.26 C 811.63 397.88, 813.39 396.58, 814.31 395.34 C 815.23 394.10, 814.82 393.28, 813.34 393.07 C 811.86 392.86, 809.90 393.51, 806.90 394.29 C 803.91 395.06, 801.94 396.03, 798.38 396.95 C 794.81 397.87, 792.49 398.55, 789.07 398.88 C 785.66 399.20, 784.02 398.99, 781.29 398.58 C 778.57 398.17, 777.38 397.76, 775.43 396.81 C 773.49 395.86, 772.71 395.32, 771.57 393.81 C 770.43 392.30, 770.08 391.35, 769.74 389.27 C 769.41 387.18, 769.43 385.94, 769.88 383.39 C 770.33 380.84, 770.72 379.30, 772.01 376.53 C 773.30 373.75, 774.29 372.17, 776.33 369.51 C 778.36 366.85, 779.70 365.46, 782.20 363.23 C 784.69 361.00, 786.18 359.95, 788.80 358.35 C 791.43 356.75, 792.92 356.22, 795.33 355.23 C 797.74 354.24, 798.87 353.91, 800.87 353.40 C 802.87 352.89, 803.82 352.95, 805.32 352.69 C 806.83 352.43, 807.36 352.40, 808.40 352.08 C 809.44 351.76, 809.97 351.78, 810.52 351.07 C 811.08 350.36, 811.45 349.46, 811.17 348.54" style="stroke: black; fill: black;"/><path d="M 860.10,304.77 C 859.26 305.30, 858.98 305.89, 858.35 307.59 C 857.73 309.29, 857.30 310.37, 856.99 313.28 C 856.67 316.19, 857.04 318.18, 856.78 322.13 C 856.51 326.09, 856.23 328.47, 855.67 333.07 C 855.12 337.66, 854.72 340.27, 854.00 345.10 C 853.28 349.94, 852.80 352.50, 852.06 357.24 C 851.32 361.98, 850.90 364.44, 850.29 368.79 C 849.69 373.14, 849.30 375.31, 849.04 378.99 C 848.78 382.67, 848.66 384.57, 848.99 387.19 C 849.32 389.80, 849.94 391.10, 850.69 392.05 C 851.44 392.99, 852.11 392.91, 852.73 391.91 C 853.35 390.92, 853.57 389.62, 853.79 387.09 C 854.01 384.55, 853.72 382.81, 853.85 379.25 C 853.98 375.69, 854.01 373.57, 854.43 369.29 C 854.86 365.01, 855.26 362.55, 855.97 357.84 C 856.68 353.13, 857.15 350.56, 857.98 345.74 C 858.82 340.92, 859.27 338.33, 860.12 333.75 C 860.97 329.18, 861.46 326.81, 862.25 322.86 C 863.04 318.92, 863.75 317.00, 864.07 314.04 C 864.39 311.09, 864.15 309.90, 863.84 308.08 C 863.54 306.27, 863.29 305.61, 862.54 304.95 C 861.79 304.29, 860.93 304.24, 860.10 304.77" style="stroke: black; fill: black;"/><path d="M 911.38,360.20 C 911.51 359.23, 911.27 358.51, 910.38 357.47 C 909.49 356.44, 908.74 355.72, 906.93 355.02 C 905.12 354.31, 903.78 353.97, 901.34 353.95 C 898.91 353.93, 897.47 354.12, 894.76 354.93 C 892.04 355.73, 890.48 356.31, 887.77 357.97 C 885.06 359.63, 883.62 360.81, 881.21 363.20 C 878.80 365.60, 877.57 367.07, 875.75 369.94 C 873.92 372.81, 873.00 374.45, 872.09 377.56 C 871.18 380.67, 870.93 382.47, 871.22 385.50 C 871.50 388.52, 872.01 390.20, 873.51 392.67 C 875.00 395.14, 876.20 396.32, 878.68 397.85 C 881.15 399.37, 882.78 399.98, 885.87 400.29 C 888.96 400.60, 890.84 400.30, 894.15 399.41 C 897.46 398.52, 899.21 397.64, 902.41 395.82 C 905.62 394.00, 907.30 392.78, 910.18 390.32 C 913.06 387.86, 914.55 386.37, 916.82 383.52 C 919.10 380.67, 920.18 379.07, 921.56 376.07 C 922.94 373.06, 923.45 371.39, 923.73 368.50 C 924.01 365.62, 923.79 364.09, 922.97 361.65 C 922.15 359.21, 921.35 358.02, 919.62 356.31 C 917.90 354.59, 916.63 353.88, 914.35 353.08 C 912.07 352.28, 910.48 351.98, 908.22 352.30 C 905.96 352.61, 903.98 353.54, 903.03 354.66 C 902.08 355.78, 902.40 357.04, 903.47 357.89 C 904.53 358.74, 906.53 358.68, 908.37 358.90 C 910.21 359.13, 911.15 358.73, 912.65 359.01 C 914.15 359.29, 914.84 359.47, 915.87 360.32 C 916.89 361.18, 917.35 361.79, 917.77 363.29 C 918.19 364.79, 918.27 365.75, 917.97 367.82 C 917.66 369.90, 917.33 371.20, 916.24 373.66 C 915.15 376.13, 914.43 377.65, 912.51 380.15 C 910.60 382.65, 909.24 384.03, 906.67 386.17 C 904.11 388.30, 902.51 389.36, 899.70 390.81 C 896.88 392.27, 895.28 392.80, 892.62 393.43 C 889.96 394.06, 888.59 394.10, 886.39 393.98 C 884.20 393.85, 883.22 393.64, 881.63 392.79 C 880.04 391.95, 879.34 391.28, 878.45 389.73 C 877.57 388.19, 877.27 387.15, 877.19 385.07 C 877.11 383.00, 877.32 381.73, 878.07 379.37 C 878.82 377.00, 879.41 375.58, 880.92 373.27 C 882.42 370.96, 883.53 369.68, 885.60 367.82 C 887.67 365.96, 889.05 365.19, 891.28 363.97 C 893.50 362.74, 894.72 362.25, 896.71 361.70 C 898.70 361.15, 899.61 361.17, 901.23 361.22 C 902.84 361.26, 903.54 361.69, 904.78 361.93 C 906.03 362.18, 906.46 362.36, 907.45 362.44 C 908.44 362.51, 908.94 362.74, 909.73 362.29 C 910.51 361.85, 911.25 361.16, 911.38 360.20" style="stroke: black; fill: black;"/><path d="M 965.18,306.44 C 964.38 306.86, 964.15 307.23, 963.50 308.67 C 962.86 310.12, 962.30 311.00, 961.96 313.67 C 961.62 316.34, 962.05 318.14, 961.81 322.03 C 961.56 325.91, 961.32 328.33, 960.73 333.10 C 960.14 337.88, 959.66 340.69, 958.86 345.89 C 958.07 351.09, 957.56 353.95, 956.74 359.12 C 955.92 364.29, 955.50 367.01, 954.77 371.75 C 954.04 376.49, 953.70 378.93, 953.09 382.81 C 952.48 386.69, 951.85 388.53, 951.71 391.16 C 951.57 393.79, 952.08 394.61, 952.40 395.96 C 952.71 397.31, 952.88 397.51, 953.30 397.91 C 953.72 398.32, 954.04 398.32, 954.50 397.98 C 954.97 397.64, 955.10 397.47, 955.63 396.22 C 956.15 394.96, 956.74 394.28, 957.13 391.70 C 957.51 389.12, 957.25 387.21, 957.55 383.33 C 957.84 379.44, 958.02 377.00, 958.59 372.28 C 959.16 367.55, 959.56 364.84, 960.38 359.69 C 961.19 354.55, 961.72 351.71, 962.67 346.53 C 963.61 341.35, 964.15 338.55, 965.10 333.81 C 966.04 329.07, 966.54 326.67, 967.39 322.82 C 968.24 318.96, 969.06 317.26, 969.34 314.52 C 969.63 311.79, 969.19 310.74, 968.82 309.15 C 968.45 307.57, 968.22 307.16, 967.49 306.61 C 966.77 306.07, 965.98 306.03, 965.18 306.44" style="stroke: black; fill: black;"/><path d="M 944.64,361.31 C 945.16 362.16, 945.81 362.51, 947.40 363.05 C 948.99 363.59, 950.10 363.89, 952.60 364.02 C 955.09 364.14, 956.75 363.91, 959.86 363.67 C 962.96 363.42, 964.75 363.13, 968.12 362.79 C 971.50 362.44, 973.62 362.42, 976.73 361.93 C 979.84 361.45, 981.44 361.14, 983.68 360.35 C 985.91 359.55, 987.14 358.87, 987.90 357.96 C 988.66 357.05, 988.50 356.37, 987.48 355.81 C 986.47 355.25, 985.13 355.19, 982.82 355.14 C 980.51 355.10, 978.98 355.31, 975.94 355.59 C 972.90 355.86, 970.88 356.32, 967.62 356.52 C 964.35 356.71, 962.62 356.57, 959.61 356.54 C 956.59 356.51, 954.96 356.21, 952.54 356.37 C 950.12 356.53, 949.05 356.85, 947.50 357.34 C 945.94 357.83, 945.33 358.01, 944.76 358.81 C 944.19 359.60, 944.11 360.46, 944.64 361.31" style="stroke: black; fill: black;"/><path d="M 1012.87,310.16 C 1012.11 310.76, 1011.95 311.36, 1011.48 313.06 C 1011.00 314.76, 1010.67 315.80, 1010.50 318.66 C 1010.33 321.51, 1010.77 323.44, 1010.61 327.33 C 1010.45 331.22, 1010.22 333.58, 1009.68 338.09 C 1009.15 342.61, 1008.70 345.21, 1007.94 349.89 C 1007.19 354.58, 1006.70 357.12, 1005.91 361.50 C 1005.12 365.89, 1004.68 368.11, 1003.99 371.84 C 1003.29 375.56, 1002.63 377.28, 1002.44 380.12 C 1002.25 382.97, 1002.38 384.22, 1003.02 386.06 C 1003.65 387.89, 1004.25 388.61, 1005.62 389.29 C 1006.99 389.97, 1008.05 390.06, 1009.87 389.44 C 1011.68 388.83, 1012.84 388.18, 1014.70 386.22 C 1016.56 384.26, 1017.16 382.46, 1019.15 379.64 C 1021.15 376.81, 1022.27 374.97, 1024.66 372.10 C 1027.05 369.23, 1028.53 367.65, 1031.12 365.29 C 1033.71 362.92, 1035.20 361.88, 1037.60 360.28 C 1039.99 358.67, 1041.18 358.08, 1043.10 357.26 C 1045.01 356.43, 1045.83 356.20, 1047.17 356.14 C 1048.50 356.08, 1048.97 356.20, 1049.77 356.95 C 1050.57 357.70, 1050.72 358.26, 1051.15 359.90 C 1051.57 361.53, 1051.64 362.68, 1051.90 365.12 C 1052.15 367.57, 1052.37 369.14, 1052.43 372.13 C 1052.49 375.12, 1052.32 376.98, 1052.18 380.09 C 1052.05 383.21, 1051.61 384.99, 1051.74 387.72 C 1051.87 390.45, 1052.27 391.86, 1052.86 393.74 C 1053.45 395.61, 1053.93 396.47, 1054.69 397.09 C 1055.45 397.72, 1056.06 397.59, 1056.65 396.85 C 1057.24 396.12, 1057.29 395.24, 1057.64 393.43 C 1057.99 391.61, 1058.20 390.40, 1058.40 387.79 C 1058.59 385.19, 1058.48 383.51, 1058.62 380.38 C 1058.76 377.25, 1059.03 375.39, 1059.10 372.15 C 1059.18 368.91, 1059.47 367.11, 1059.01 364.17 C 1058.54 361.24, 1058.04 359.70, 1056.79 357.46 C 1055.55 355.22, 1054.66 354.22, 1052.77 352.95 C 1050.88 351.69, 1049.67 351.32, 1047.34 351.13 C 1045.00 350.94, 1043.68 351.12, 1041.09 352.01 C 1038.51 352.91, 1037.12 353.72, 1034.41 355.59 C 1031.70 357.46, 1030.30 358.81, 1027.52 361.37 C 1024.74 363.93, 1023.22 365.56, 1020.51 368.39 C 1017.81 371.22, 1016.35 372.93, 1014.01 375.52 C 1011.67 378.10, 1010.26 379.32, 1008.81 381.33 C 1007.36 383.34, 1007.18 384.42, 1006.78 385.58 C 1006.37 386.75, 1006.66 387.16, 1006.79 387.16 C 1006.91 387.15, 1007.13 386.86, 1007.40 385.55 C 1007.67 384.24, 1007.90 383.20, 1008.15 380.59 C 1008.40 377.99, 1008.27 376.20, 1008.66 372.52 C 1009.05 368.84, 1009.41 366.59, 1010.09 362.21 C 1010.77 357.82, 1011.25 355.28, 1012.08 350.59 C 1012.91 345.90, 1013.41 343.30, 1014.22 338.77 C 1015.04 334.24, 1015.48 331.87, 1016.17 327.93 C 1016.86 324.00, 1017.52 322.05, 1017.68 319.07 C 1017.85 316.10, 1017.47 314.87, 1016.99 313.06 C 1016.52 311.26, 1016.14 310.62, 1015.32 310.04 C 1014.50 309.46, 1013.64 309.55, 1012.87 310.16" style="stroke: black; fill: black;"/><path d="M 1085.57,380.80 C 1086.15 381.65, 1086.94 382.09, 1088.57 382.44 C 1090.21 382.78, 1091.39 382.85, 1093.73 382.52 C 1096.06 382.19, 1097.59 381.80, 1100.25 380.77 C 1102.90 379.75, 1104.35 378.89, 1106.98 377.41 C 1109.61 375.92, 1111.03 375.06, 1113.42 373.33 C 1115.81 371.60, 1117.02 370.63, 1118.93 368.76 C 1120.85 366.89, 1121.76 365.93, 1122.99 363.98 C 1124.23 362.03, 1124.77 361.00, 1125.10 359.02 C 1125.43 357.04, 1125.40 355.87, 1124.65 354.06 C 1123.91 352.26, 1123.17 351.25, 1121.37 350.01 C 1119.58 348.78, 1118.29 348.25, 1115.67 347.89 C 1113.05 347.54, 1111.39 347.56, 1108.27 348.23 C 1105.16 348.90, 1103.40 349.72, 1100.09 351.25 C 1096.78 352.79, 1094.93 353.78, 1091.73 355.91 C 1088.54 358.04, 1086.86 359.30, 1084.11 361.91 C 1081.36 364.51, 1079.94 365.98, 1077.99 368.92 C 1076.03 371.86, 1075.09 373.49, 1074.35 376.61 C 1073.60 379.73, 1073.62 381.50, 1074.27 384.52 C 1074.91 387.54, 1075.56 389.22, 1077.56 391.72 C 1079.56 394.21, 1081.10 395.34, 1084.26 397.01 C 1087.41 398.68, 1089.40 399.25, 1093.33 400.07 C 1097.26 400.89, 1099.54 401.04, 1103.93 401.12 C 1108.32 401.20, 1111.08 400.92, 1115.29 400.46 C 1119.50 400.01, 1121.83 399.74, 1125.00 398.83 C 1128.17 397.92, 1130.03 396.95, 1131.14 395.92 C 1132.25 394.88, 1131.97 394.03, 1130.54 393.66 C 1129.12 393.30, 1127.18 393.70, 1124.03 394.09 C 1120.87 394.48, 1118.75 395.15, 1114.76 395.60 C 1110.76 396.04, 1108.09 396.42, 1104.03 396.31 C 1099.98 396.20, 1097.88 395.92, 1094.48 395.06 C 1091.08 394.20, 1089.47 393.42, 1087.01 392.00 C 1084.55 390.58, 1083.63 389.68, 1082.18 387.95 C 1080.73 386.22, 1080.20 385.33, 1079.76 383.34 C 1079.33 381.34, 1079.43 380.26, 1079.99 377.98 C 1080.56 375.70, 1081.04 374.37, 1082.60 371.93 C 1084.15 369.49, 1085.35 368.06, 1087.77 365.77 C 1090.18 363.48, 1091.75 362.29, 1094.67 360.50 C 1097.60 358.71, 1099.39 357.88, 1102.38 356.82 C 1105.37 355.76, 1107.06 355.62, 1109.61 355.20 C 1112.17 354.79, 1113.33 354.76, 1115.15 354.74 C 1116.97 354.72, 1117.67 354.84, 1118.70 355.09 C 1119.73 355.35, 1120.01 355.47, 1120.30 356.00 C 1120.59 356.53, 1120.56 356.85, 1120.15 357.75 C 1119.74 358.66, 1119.37 359.27, 1118.26 360.52 C 1117.16 361.77, 1116.37 362.55, 1114.62 363.99 C 1112.88 365.43, 1111.73 366.27, 1109.54 367.70 C 1107.34 369.13, 1106.05 369.96, 1103.66 371.13 C 1101.26 372.31, 1099.89 372.76, 1097.58 373.58 C 1095.27 374.39, 1093.99 374.59, 1092.09 375.21 C 1090.19 375.82, 1089.38 376.06, 1088.08 376.66 C 1086.79 377.25, 1086.13 377.34, 1085.63 378.17 C 1085.12 379.00, 1084.98 379.94, 1085.57 380.80" style="stroke: black; fill: black;"/><path d="M 1183.83,355.37 C 1183.82 354.43, 1183.53 353.80, 1182.53 352.91 C 1181.53 352.03, 1180.71 351.44, 1178.83 350.93 C 1176.94 350.41, 1175.59 350.26, 1173.10 350.35 C 1170.62 350.44, 1169.14 350.72, 1166.39 351.38 C 1163.65 352.05, 1162.04 352.54, 1159.38 353.68 C 1156.73 354.83, 1155.28 355.54, 1153.10 357.10 C 1150.93 358.67, 1149.85 359.59, 1148.50 361.51 C 1147.14 363.43, 1146.62 364.57, 1146.33 366.70 C 1146.04 368.84, 1146.23 370.06, 1147.04 372.17 C 1147.85 374.28, 1148.65 375.36, 1150.39 377.24 C 1152.13 379.12, 1153.39 379.97, 1155.75 381.55 C 1158.10 383.13, 1159.63 383.81, 1162.16 385.13 C 1164.69 386.46, 1166.14 387.05, 1168.42 388.17 C 1170.70 389.30, 1171.90 389.83, 1173.57 390.76 C 1175.25 391.68, 1175.97 392.09, 1176.81 392.78 C 1177.64 393.47, 1177.82 393.67, 1177.77 394.21 C 1177.71 394.75, 1177.49 394.89, 1176.52 395.49 C 1175.54 396.09, 1174.79 396.35, 1172.88 397.21 C 1170.97 398.07, 1169.71 398.75, 1166.96 399.78 C 1164.21 400.82, 1162.47 401.55, 1159.13 402.39 C 1155.80 403.22, 1153.79 403.57, 1150.30 403.97 C 1146.81 404.37, 1144.89 404.47, 1141.68 404.39 C 1138.46 404.32, 1136.84 403.82, 1134.23 403.59 C 1131.62 403.37, 1130.46 403.29, 1128.62 403.27 C 1126.77 403.24, 1125.85 403.05, 1125.00 403.47 C 1124.15 403.88, 1123.88 404.49, 1124.38 405.35 C 1124.87 406.21, 1125.67 406.89, 1127.49 407.78 C 1129.31 408.67, 1130.64 409.36, 1133.47 409.79 C 1136.31 410.23, 1138.20 410.06, 1141.68 409.97 C 1145.17 409.89, 1147.15 409.75, 1150.88 409.37 C 1154.61 408.99, 1156.69 408.71, 1160.33 408.08 C 1163.97 407.45, 1165.92 407.15, 1169.09 406.23 C 1172.27 405.31, 1173.89 404.86, 1176.21 403.46 C 1178.53 402.07, 1179.51 401.07, 1180.70 399.25 C 1181.90 397.43, 1182.17 396.28, 1182.20 394.36 C 1182.22 392.45, 1181.86 391.41, 1180.84 389.68 C 1179.81 387.94, 1178.89 387.19, 1177.06 385.70 C 1175.22 384.20, 1173.97 383.60, 1171.68 382.22 C 1169.39 380.84, 1168.01 380.18, 1165.63 378.81 C 1163.24 377.44, 1161.88 376.68, 1159.76 375.36 C 1157.63 374.04, 1156.56 373.37, 1155.02 372.22 C 1153.47 371.07, 1152.81 370.57, 1152.04 369.61 C 1151.28 368.65, 1151.05 368.31, 1151.20 367.42 C 1151.36 366.54, 1151.73 366.12, 1152.81 365.18 C 1153.89 364.23, 1154.78 363.65, 1156.62 362.69 C 1158.46 361.72, 1159.73 361.17, 1162.01 360.37 C 1164.30 359.57, 1165.76 359.16, 1168.05 358.68 C 1170.34 358.21, 1171.53 358.10, 1173.44 358.00 C 1175.36 357.89, 1176.24 358.13, 1177.65 358.16 C 1179.05 358.18, 1179.50 358.23, 1180.48 358.12 C 1181.45 358.01, 1181.87 358.16, 1182.54 357.60 C 1183.21 357.05, 1183.83 356.31, 1183.83 355.37" style="stroke: black; fill: black;"/></svg>